<?xml version="1.0" standalone="no"?>
<!DOCTYPE svg PUBLIC "-//W3C//DTD SVG 20010904//EN"
 "http://www.w3.org/TR/2001/REC-SVG-20010904/DTD/svg10.dtd">
<svg version="1.0" xmlns="http://www.w3.org/2000/svg"
 width="1000.000000pt" height="459.000000pt" viewBox="0 0 1000.000000 459.000000"
 preserveAspectRatio="xMidYMid meet">

<g transform="translate(0.000000,459.000000) scale(0.100000,-0.100000)"
fill="#000000" stroke="none">
<path d="M8670 4363 c-42 -16 -75 -52 -103 -110 -75 -162 -13 -338 131 -372
158 -38 276 127 216 302 -37 109 -171 207 -244 180z m112 -42 c133 -85 174
-272 80 -370 -90 -94 -224 -69 -290 54 -11 20 -16 54 -16 105 1 90 29 165 81
210 44 39 85 39 145 1z"/>
<path d="M8704 4175 c-54 -129 -55 -135 -35 -135 10 0 21 7 25 15 3 9 18 15
40 15 21 0 36 -6 40 -15 3 -8 15 -15 26 -15 20 0 20 1 5 38 -41 98 -60 132
-72 132 -8 0 -21 -16 -29 -35z m48 -57 c7 -15 4 -18 -16 -18 -26 0 -26 2 -10
48 5 14 7 14 12 2 2 -8 9 -23 14 -32z"/>
<path d="M9200 4329 c-81 -32 -160 -163 -160 -264 0 -238 318 -247 371 -11 9
42 8 63 -4 112 -36 138 -114 200 -207 163z m130 -48 c61 -63 85 -204 47 -276
-38 -75 -121 -121 -187 -106 -89 20 -130 73 -130 166 1 129 96 255 194 255 32
0 45 -7 76 -39z"/>
<path d="M9150 4170 c0 -5 13 -10 30 -10 l29 0 3 -72 c2 -40 8 -73 13 -73 6 0
11 33 13 73 l3 72 29 0 c17 0 30 5 30 10 0 6 -32 10 -75 10 -43 0 -75 -4 -75
-10z"/>
<path d="M4455 4160 c-75 -49 -142 -109 -158 -144 -10 -21 -23 -72 -29 -114
-10 -68 -9 -81 7 -116 17 -36 20 -38 54 -32 154 28 246 38 375 39 l149 1 -5
108 c-5 98 -8 112 -33 148 -15 22 -34 40 -42 40 -7 0 -18 11 -23 24 -10 28
-45 50 -62 40 -6 -4 -8 -3 -5 3 9 14 -40 23 -127 23 -54 0 -78 -5 -101 -20z"/>
<path d="M8283 3975 c-68 -29 -105 -129 -85 -234 20 -110 83 -172 180 -179 47
-3 63 0 91 20 55 37 74 71 79 138 3 47 0 68 -18 102 -58 113 -173 184 -247
153z m104 -26 c48 -23 107 -86 129 -138 8 -18 14 -54 14 -78 0 -150 -152 -211
-261 -107 -83 79 -75 287 12 331 34 18 56 16 106 -8z"/>
<path d="M8300 3774 l0 -84 48 0 c60 0 92 28 92 81 0 35 -28 78 -53 80 -7 1
-29 2 -49 4 l-38 3 0 -84z m90 40 c20 -23 16 -75 -5 -90 -36 -27 -45 -18 -45
46 0 52 2 60 19 60 10 0 24 -7 31 -16z"/>
<path d="M3320 3941 c0 -6 -7 -11 -15 -11 -22 0 -87 -34 -123 -65 -34 -29 -63
-110 -58 -160 3 -23 8 -30 25 -29 16 0 20 -4 15 -18 -4 -13 2 -21 22 -29 23
-8 25 -12 14 -19 -13 -8 -12 -10 2 -10 9 0 21 -7 25 -15 6 -9 44 -19 113 -29
110 -16 232 -40 264 -52 13 -5 17 -4 12 4 -5 8 -2 10 8 6 10 -4 16 -1 16 10 0
8 6 13 13 10 21 -8 47 50 47 103 0 58 -26 118 -69 157 -17 17 -31 35 -31 40
-1 14 -82 74 -126 92 -47 20 -154 30 -154 15z"/>
<path d="M9563 3920 c-35 -8 -49 -17 -101 -64 -120 -110 -84 -296 57 -296 120
0 202 110 181 245 -12 82 -69 130 -137 115z m82 -43 c55 -55 56 -165 4 -239
-28 -39 -100 -71 -143 -63 -65 13 -112 83 -100 153 8 47 75 134 123 159 59 31
77 29 116 -10z"/>
<path d="M9521 3818 c-5 -13 -20 -51 -34 -85 -24 -58 -24 -63 -7 -63 10 0 20
7 24 15 8 21 72 20 84 -1 5 -9 16 -14 25 -13 13 3 11 16 -18 84 -34 84 -58
104 -74 63z m27 -86 c-28 -5 -31 1 -16 33 l12 28 12 -29 c11 -26 10 -29 -8
-32z"/>
<path d="M8929 3840 c-75 -13 -119 -53 -309 -274 -111 -129 -191 -232 -199
-255 -31 -85 27 -204 122 -250 58 -28 135 -27 267 4 128 30 210 31 315 5 122
-31 215 -37 271 -15 155 59 201 224 98 348 -14 18 -97 112 -183 210 -126 143
-166 182 -206 201 -54 26 -119 36 -176 26z m170 -39 c25 -13 94 -82 192 -193
85 -95 164 -184 177 -198 89 -98 79 -237 -23 -311 -73 -53 -164 -56 -315 -11
-82 24 -225 21 -330 -8 -100 -27 -203 -29 -248 -6 -97 50 -147 173 -104 253
16 29 242 298 342 407 65 70 128 99 207 92 34 -3 80 -14 102 -25z"/>
<path d="M8770 3384 c0 -67 2 -75 18 -72 12 3 16 12 15 31 -2 37 23 35 45 -3
9 -16 25 -30 35 -30 17 0 17 1 0 30 -13 23 -15 32 -5 42 15 15 15 51 0 66 -7
7 -34 12 -60 12 l-48 0 0 -76z m85 31 c0 -15 -7 -20 -25 -20 -23 0 -33 17 -22
38 8 17 47 2 47 -18z"/>
<path d="M8937 3442 c-26 -28 -22 -97 5 -116 29 -21 61 -20 87 2 34 27 32 101
-3 124 -21 14 -73 8 -89 -10z m78 -51 c0 -30 -5 -47 -17 -54 -24 -16 -48 8
-48 47 0 38 17 58 45 54 17 -3 20 -11 20 -47z"/>
<path d="M9080 3385 l0 -75 41 0 c22 0 49 5 60 10 20 11 26 54 9 65 -6 4 -5
13 2 25 19 30 -6 50 -63 50 l-49 0 0 -75z m85 35 c0 -9 -11 -16 -27 -18 -23
-3 -28 1 -28 18 0 17 5 21 28 18 16 -2 27 -9 27 -18z m2 -55 c7 -20 3 -24 -28
-27 -18 -2 -25 2 -27 20 -3 18 1 22 23 22 14 0 28 -7 32 -15z"/>
<path d="M4645 3783 c-85 -4 -243 -23 -292 -35 -34 -8 -42 -14 -45 -39 -3 -17
2 -35 11 -45 12 -12 13 -18 4 -21 -8 -3 -13 -23 -13 -50 0 -81 89 -238 131
-233 28 4 39 0 39 -16 0 -11 5 -14 16 -10 9 3 18 6 20 6 2 0 4 7 4 15 0 13 9
15 48 9 57 -7 82 10 82 57 0 34 15 38 25 7 6 -19 9 -14 17 27 12 64 56 157 71
152 7 -2 13 -13 15 -25 6 -40 38 -26 58 26 17 43 26 154 14 165 -8 7 -138 13
-205 10z"/>
<path d="M5731 3728 c-35 -5 -76 -17 -90 -27 -15 -11 -37 -21 -51 -22 -19 -3
-28 -14 -40 -47 -14 -42 -14 -44 10 -62 16 -12 34 -16 56 -13 25 4 34 1 43
-15 6 -10 8 -22 5 -24 -7 -7 167 -144 178 -140 5 1 7 -2 3 -7 -6 -10 51 -58
65 -54 4 1 7 -5 6 -15 -1 -11 5 -16 18 -14 13 3 17 -1 13 -12 -4 -10 -1 -13 9
-9 7 3 14 9 14 13 0 12 -30 21 -43 13 -7 -3 -8 -2 -4 2 4 5 28 10 52 10 43 2
44 1 29 -17 -16 -17 -15 -18 16 -18 19 0 38 -7 46 -17 12 -17 13 -16 14 5 0
24 15 30 23 10 3 -7 4 10 1 37 -3 39 -2 44 6 25 14 -39 3 116 -13 175 -20 72
-40 106 -90 152 -46 43 -139 84 -185 82 -15 -1 -56 -6 -91 -11z"/>
<path d="M4750 3580 c0 -5 5 -10 10 -10 6 0 10 5 10 10 0 6 -4 10 -10 10 -5 0
-10 -4 -10 -10z"/>
<path d="M5516 3548 c-8 -13 -18 -35 -21 -50 -4 -16 -13 -28 -20 -28 -9 0 -12
-13 -12 -37 2 -30 6 -38 22 -40 l20 -3 -20 9 c-22 10 -21 11 12 15 14 2 20 -2
16 -8 -4 -6 1 -5 10 2 22 18 37 7 37 -28 0 -19 7 -33 20 -40 11 -6 20 -21 20
-33 0 -18 2 -19 11 -7 7 10 12 11 15 4 14 -34 31 -46 50 -36 10 6 57 15 104
21 91 10 105 5 93 -34 -5 -18 -4 -19 12 -5 14 11 19 12 22 3 3 -7 9 -13 15
-13 6 0 -20 31 -57 70 -38 38 -72 67 -77 64 -5 -3 -7 0 -6 7 2 7 -8 18 -22 26
-14 7 -21 13 -16 13 5 0 -3 9 -18 21 -14 11 -31 17 -37 13 -7 -4 -9 -3 -6 3
11 17 -18 33 -51 29 -33 -4 -47 6 -53 38 -2 10 -14 25 -26 33 -20 13 -23 12
-37 -9z m304 -213 c0 -12 -19 -12 -23 0 -4 9 -1 12 9 8 7 -3 14 -7 14 -8z"/>
<path d="M3212 3533 c10 -2 15 -10 11 -19 -4 -10 4 -14 28 -15 l34 -2 -35 -7
c-30 -6 -31 -8 -10 -10 14 -1 27 -2 30 -2 3 0 7 -9 7 -20 2 -19 1 -19 -18 -3
-23 21 -24 14 -5 -24 l15 -28 131 2 c105 2 130 -1 126 -11 -3 -7 0 -16 7 -20
7 -4 9 -3 4 1 -4 5 0 19 9 33 13 19 14 30 5 48 -11 24 -3 32 14 15 6 -5 18 -6
28 -2 13 5 -5 13 -57 25 -42 10 -84 15 -92 12 -8 -3 -13 -2 -10 3 6 9 -140 32
-199 30 -22 -1 -32 -3 -23 -6z m85 -19 c-3 -3 -12 -4 -19 -1 -8 3 -5 6 6 6 11
1 17 -2 13 -5z m26 -21 c-7 -2 -19 -2 -25 0 -7 3 -2 5 12 5 14 0 19 -2 13 -5z
m214 -65 c-3 -8 -6 -5 -6 6 -1 11 2 17 5 13 3 -3 4 -12 1 -19z"/>
<path d="M3210 3416 c0 -9 5 -16 10 -16 6 0 10 4 10 9 0 6 -4 13 -10 16 -5 3
-10 -1 -10 -9z"/>
<path d="M3290 3380 c0 -5 5 -10 10 -10 6 0 10 5 10 10 0 6 -4 10 -10 10 -5 0
-10 -4 -10 -10z"/>
<path d="M3400 3379 c0 -5 5 -7 10 -4 6 3 10 8 10 11 0 2 -4 4 -10 4 -5 0 -10
-5 -10 -11z"/>
<path d="M3440 3376 c0 -9 5 -16 10 -16 6 0 10 4 10 9 0 6 -4 13 -10 16 -5 3
-10 -1 -10 -9z"/>
<path d="M3488 3383 c7 -3 16 -2 19 1 4 3 -2 6 -13 5 -11 0 -14 -3 -6 -6z"/>
<path d="M4826 3317 c3 -10 9 -15 12 -12 3 3 0 11 -7 18 -10 9 -11 8 -5 -6z"/>
<path d="M5416 3318 c3 -5 10 -6 15 -3 13 9 11 12 -6 12 -8 0 -12 -4 -9 -9z"/>
<path d="M5495 3320 c3 -5 8 -10 11 -10 2 0 4 5 4 10 0 6 -5 10 -11 10 -5 0
-7 -4 -4 -10z"/>
<path d="M5407 3299 c7 -7 15 -10 18 -7 3 3 -2 9 -12 12 -14 6 -15 5 -6 -5z"/>
<path d="M4354 3269 c-3 -6 -2 -15 3 -20 5 -5 9 -1 9 11 0 23 -2 24 -12 9z"/>
<path d="M5960 3252 c0 -14 28 -23 36 -11 3 6 3 13 0 16 -3 4 -6 1 -6 -7 0
-10 -3 -10 -15 0 -9 7 -15 8 -15 2z"/>
<path d="M4327 3239 c7 -7 15 -10 18 -7 3 3 -2 9 -12 12 -14 6 -15 5 -6 -5z"/>
<path d="M5954 3208 c19 -32 5 -38 -15 -7 -13 19 -14 19 -14 -14 0 -19 5 -34
12 -34 6 0 9 7 5 16 -4 13 -1 12 16 -3 12 -11 25 -16 29 -13 3 4 1 7 -6 7 -7
0 -11 6 -8 13 3 7 -4 24 -15 38 l-20 24 16 -27z"/>
<path d="M6007 3213 c6 -16 11 -16 28 1 12 12 11 14 -9 12 -14 0 -22 -6 -19
-13z"/>
<path d="M6025 3180 c-3 -6 1 -7 9 -4 18 7 21 14 7 14 -6 0 -13 -4 -16 -10z"/>
<path d="M8682 2730 c-28 -12 -92 -59 -109 -80 -10 -12 -7 -17 15 -27 25 -11
60 -24 72 -28 3 -1 22 -9 44 -18 21 -9 42 -17 47 -17 5 0 9 -5 9 -11 0 -5 4
-8 9 -5 13 8 61 -17 61 -33 0 -11 3 -11 15 -1 12 10 15 9 16 -6 0 -11 3 -14 5
-7 3 7 12 9 20 6 8 -3 14 1 14 8 1 8 6 4 13 -9 26 -46 36 11 15 83 -11 38 -12
39 -19 15 -6 -21 -7 -18 -8 16 -1 46 -24 74 -61 74 -13 0 -33 9 -45 20 -26 24
-80 34 -113 20z"/>
<path d="M9360 2621 c-14 -3 -26 -12 -28 -20 -2 -8 3 -11 11 -8 8 3 27 -3 43
-14 16 -10 40 -19 53 -19 17 0 22 -4 17 -16 -3 -8 -2 -13 2 -11 4 3 13 -1 20
-9 7 -8 8 -14 3 -14 -6 0 1 -11 15 -25 26 -26 54 -33 54 -14 0 19 47 -33 64
-71 9 -19 14 -26 10 -15 -3 11 -8 35 -11 53 -3 18 -10 35 -14 38 -5 3 -9 16
-9 30 0 14 -4 23 -9 19 -5 -3 -13 0 -17 6 -4 8 -9 7 -16 -2 -7 -10 -8 -8 -3 6
13 36 10 47 -15 65 -27 20 -128 32 -170 21z"/>
<path d="M9300 2599 c0 -5 5 -7 10 -4 6 3 10 8 10 11 0 2 -4 4 -10 4 -5 0 -10
-5 -10 -11z"/>
<path d="M8527 2563 c-15 -14 -6 -53 15 -67 21 -15 21 -19 10 -58 -10 -37 -9
-45 6 -58 18 -16 23 -34 25 -85 2 -36 12 -45 54 -45 23 0 33 -6 38 -19 4 -12
12 -18 21 -14 30 11 13 -19 -18 -32 -44 -18 -54 -38 -82 -153 -32 -129 -46
-159 -100 -212 -25 -25 -46 -51 -46 -59 0 -8 -7 -11 -20 -8 -11 3 -20 1 -20
-3 0 -23 -280 -34 -310 -13 -12 8 -49 16 -83 18 -34 1 -73 6 -87 9 -14 4 -63
8 -110 10 -113 4 -214 17 -221 28 -3 5 -17 10 -30 11 -26 1 -49 19 -49 36 0 6
-6 12 -12 12 -7 1 -20 2 -28 3 -12 1 -16 21 -20 93 -3 50 -9 95 -13 99 -10 10
-35 16 -64 15 -32 -1 -28 13 9 30 l31 15 -36 22 c-21 12 -37 18 -37 14 0 -4
-23 -8 -51 -9 -44 -2 -49 0 -39 12 9 11 10 15 1 15 -7 0 -9 5 -6 10 3 6 -3 10
-14 10 -16 0 -21 -6 -21 -25 0 -23 -3 -25 -51 -25 -40 0 -50 -3 -46 -14 4 -11
-3 -13 -35 -8 -51 6 -68 -13 -68 -77 0 -55 22 -201 44 -291 17 -72 21 -206 7
-260 -5 -19 -12 -64 -15 -100 -2 -36 -8 -91 -12 -122 l-7 -58 -53 53 c-48 47
-53 57 -55 97 0 25 4 79 11 120 16 103 6 189 -31 264 -31 62 -92 143 -87 116
3 -12 -11 -14 -75 -13 -97 2 -106 11 -107 106 0 73 1 72 -67 68 l-33 -3 0 106
0 106 -30 0 c-16 0 -30 5 -30 10 0 6 -7 10 -16 10 -9 0 -23 8 -30 18 -12 16
-13 15 -14 -6 0 -12 -7 -25 -15 -28 -8 -4 -15 -13 -15 -22 0 -9 -4 -29 -9 -46
-23 -77 -42 -188 -40 -242 1 -32 -2 -80 -6 -106 -6 -41 -5 -48 9 -48 18 0 19
-3 16 -86 -1 -43 4 -72 16 -95 12 -22 19 -60 20 -109 2 -41 9 -98 17 -126 11
-44 11 -58 -1 -99 -11 -40 -11 -49 0 -56 10 -7 10 -9 1 -9 -10 0 -13 -26 -13
-95 0 -51 -4 -116 -9 -142 -6 -26 -12 -97 -15 -158 -6 -133 -14 -175 -32 -175
-18 0 -18 -16 -1 -23 16 -6 20 -69 6 -78 -6 -3 -10 -14 -9 -25 0 -10 2 -37 3
-58 3 -50 -16 -57 -30 -12 -9 29 -8 36 6 42 11 4 12 8 3 11 -6 3 -10 8 -7 13
3 4 -3 14 -13 21 -9 7 -14 10 -10 5 4 -5 1 -15 -7 -22 -15 -16 -39 -19 -30 -5
3 5 1 12 -4 15 -5 4 -12 -3 -16 -14 -3 -11 -10 -20 -15 -20 -5 0 -7 6 -4 13 3
8 -2 20 -11 27 -12 10 -15 10 -15 -1 0 -8 -5 -21 -10 -29 -9 -13 -13 -11 -30
10 -13 17 -20 20 -20 10 0 -20 -37 -53 -43 -37 -2 6 -6 4 -10 -5 -5 -15 0 -16
46 -10 29 4 78 7 111 7 56 0 59 -1 62 -27 3 -31 -23 -60 -36 -39 -5 9 -10 10
-14 2 -12 -19 -26 -12 -26 12 l0 22 -20 -25 c-19 -23 -21 -24 -34 -7 -13 16
-14 16 -29 -5 -13 -19 -16 -20 -16 -5 -1 21 -21 23 -21 2 0 -8 -8 -15 -19 -15
-13 0 -21 10 -26 33 -7 32 -7 32 -15 7 -12 -36 -12 -62 0 -55 13 8 13 -26 0
-61 -16 -40 -24 -22 -25 58 -2 66 9 100 30 98 3 0 4 3 3 8 -2 4 -6 6 -9 5 -3
-1 -4 9 -1 22 2 15 0 25 -7 25 -19 0 -12 16 14 30 14 8 21 16 16 20 -12 7 7
90 25 108 7 7 11 18 9 25 -3 7 6 34 20 61 14 27 25 60 25 73 0 13 3 22 8 19 4
-2 6 13 4 35 -2 21 -8 39 -12 39 -5 0 -10 10 -12 23 -2 13 -10 22 -20 21 -10
-1 -14 4 -11 12 7 19 8 18 38 -13 l25 -28 1 25 c0 14 2 42 4 63 1 22 -3 44
-11 51 -11 12 -10 15 9 20 15 4 18 9 10 14 -6 4 -13 25 -15 47 -3 36 -5 40
-28 37 -14 -2 -22 -1 -18 4 4 4 0 13 -10 20 -15 12 -14 13 16 14 21 0 32 5 32
14 0 33 -31 174 -56 254 l-27 85 23 42 c21 38 21 46 11 94 -13 62 -7 131 19
216 26 83 38 181 40 308 l1 107 -43 2 c-78 3 -123 -3 -155 -20 -18 -9 -33 -19
-33 -22 0 -3 -35 -6 -78 -8 -43 -2 -86 -9 -98 -16 -33 -22 -203 -199 -224
-233 -12 -20 -20 -55 -22 -94 -2 -39 -8 -64 -15 -67 -7 -2 -13 3 -13 11 0 8
-7 17 -15 21 -18 6 -45 -2 -45 -15 0 -5 -4 -9 -10 -9 -5 0 -7 7 -4 15 5 12 -4
15 -48 15 -30 0 -58 -4 -64 -9 -9 -9 -70 -19 -151 -25 -37 -2 -78 -27 -78 -47
0 -4 -4 -11 -9 -16 -5 -5 -6 -3 -2 5 4 6 2 12 -3 12 -6 0 -10 6 -8 13 1 6 -5
12 -13 12 -26 0 -30 17 -30 141 l0 122 -32 7 c-18 4 -56 7 -84 6 -39 -2 -53 1
-57 13 -4 9 -2 16 3 16 6 0 10 5 10 11 0 6 -6 9 -12 6 -14 -4 -32 55 -48 150
-10 62 -29 124 -42 138 -6 6 -6 3 -2 -9 7 -19 6 -19 -16 -3 -17 12 -27 13 -36
6 -9 -8 -11 -5 -7 10 5 18 1 21 -33 22 -22 1 -47 1 -56 0 -10 -1 -18 2 -18 7
0 5 23 12 51 16 28 4 49 9 47 12 -3 2 -37 6 -77 8 -64 3 -73 1 -87 -18 -8 -12
-10 -22 -4 -24 5 -2 10 -11 10 -20 -1 -15 -2 -15 -11 1 -5 9 -21 17 -34 17
-24 0 -55 23 -55 41 0 14 -40 11 -41 -3 -1 -7 -2 -20 -3 -28 -1 -8 3 -21 9
-29 7 -11 7 -13 -2 -8 -8 5 -13 -2 -15 -20 -2 -14 -9 -29 -17 -31 -9 -3 -11 0
-6 9 6 10 3 10 -11 -2 -10 -8 -35 -14 -54 -14 -19 1 -38 -3 -42 -9 -5 -8 -8
-7 -8 2 0 29 -20 8 -26 -28 -4 -22 -11 -43 -15 -46 -5 -3 -9 -10 -9 -15 0 -6
5 -7 10 -4 6 3 10 2 10 -4 0 -5 -4 -12 -9 -15 -4 -3 -6 -17 -3 -32 3 -15 0
-29 -7 -33 -9 -6 -8 -11 3 -21 17 -14 21 -8 29 40 3 17 5 14 6 -12 0 -21 6
-38 11 -38 6 0 10 5 10 11 0 8 5 8 15 -1 13 -11 15 -7 17 26 1 37 1 37 5 7 2
-18 9 -33 15 -33 6 0 8 10 4 24 -3 14 -2 28 4 31 6 4 10 -7 10 -25 0 -26 3
-31 21 -28 17 2 21 11 24 51 3 57 14 75 16 26 3 -59 4 -64 13 -77 5 -8 4 -18
-3 -25 -8 -8 -11 -7 -11 2 0 10 -4 10 -12 3 -11 -8 -107 -16 -180 -14 -11 1
-18 -9 -20 -26 -2 -19 -8 -26 -20 -24 -14 2 -18 -4 -18 -25 0 -38 -10 -49 -42
-49 -21 0 -25 3 -16 13 7 9 7 13 0 13 -5 0 -8 9 -5 20 6 24 -9 26 -27 5 -7 -8
-9 -15 -6 -15 4 0 1 -7 -8 -15 -8 -8 -22 -15 -30 -15 -13 0 -16 -15 -16 -95 0
-90 -1 -95 -22 -100 -13 -2 -32 -4 -43 -2 -12 1 -20 -4 -20 -13 0 -8 -6 -21
-13 -29 -7 -7 -11 -19 -8 -26 3 -8 -4 -10 -19 -7 -12 2 -26 -2 -30 -9 -6 -9
-3 -11 8 -6 10 3 17 2 17 -3 0 -6 -9 -10 -21 -10 -16 0 -19 4 -14 18 27 60 9
166 -29 176 -11 3 -42 6 -68 6 l-48 0 -1 -57 c-2 -63 -5 -53 -14 50 -5 46 -11
67 -20 67 -10 0 -13 -17 -14 -61 0 -34 -2 -64 -5 -67 -4 -3 -6 13 -6 35 0 24
-5 43 -12 46 -10 4 -10 6 -1 6 9 1 10 8 4 24 -5 12 -9 27 -10 32 -1 6 -66 10
-171 11 -94 1 -172 3 -174 5 -3 2 -6 22 -8 44 l-4 40 -117 3 c-95 2 -117 5
-117 17 0 20 -26 19 -34 -1 -3 -8 -14 -14 -23 -13 -10 0 -46 1 -80 0 -54 -1
-63 -4 -63 -19 0 -10 -3 -22 -7 -26 -4 -3 -8 -43 -9 -88 -2 -62 -6 -85 -18
-94 -9 -6 -16 -20 -16 -31 0 -10 -5 -24 -12 -31 -9 -9 -9 -12 0 -12 7 0 12
-11 12 -25 0 -16 6 -25 15 -25 8 0 15 -7 15 -15 0 -9 -9 -15 -25 -15 -13 0
-35 -5 -48 -11 -15 -7 -31 -8 -41 -2 -14 7 -13 10 5 21 12 8 18 9 14 3 -3 -6
-1 -11 4 -11 10 0 12 7 10 26 0 3 8 12 17 19 17 12 16 13 -4 26 -19 12 -22 23
-22 71 0 32 -4 58 -10 58 -6 0 -10 30 -10 70 0 53 -3 70 -14 70 -7 0 -19 6
-25 14 -8 10 -23 12 -44 9 -18 -4 -49 -6 -69 -6 -28 1 -39 -4 -43 -18 -10 -30
-35 -23 -35 9 0 45 -40 54 -152 36 -36 -6 -38 -8 -40 -48 -4 -94 -6 -114 -13
-168 -6 -48 -5 -59 8 -64 11 -4 15 -14 11 -33 -6 -31 27 -70 86 -102 50 -27
115 -74 114 -82 -1 -4 -5 -42 -8 -85 -4 -42 -14 -128 -22 -190 l-15 -112 28
-25 c28 -24 27 -26 -17 -29 -12 -1 -18 -30 -30 -133 -21 -180 -22 -176 20
-190 19 -6 60 -12 90 -12 39 -1 51 -4 43 -12 -7 -7 -8 -21 -2 -41 4 -16 9 -55
10 -86 1 -31 8 -76 15 -100 13 -46 12 -47 -31 -54 -15 -2 -21 -12 -23 -43 -4
-44 14 -65 55 -65 13 0 23 -4 23 -10 0 -13 -87 -13 -95 0 -4 6 -15 8 -26 5
-13 -4 -19 -2 -19 9 0 8 9 18 20 21 11 4 18 10 15 15 -3 5 -6 26 -7 47 0 21
-5 44 -11 51 -8 10 -7 16 4 23 18 11 32 12 25 1 -3 -5 1 -9 9 -9 17 0 39 67
26 80 -5 5 -12 3 -16 -4 -5 -8 -4 -10 3 -5 17 10 15 -9 -3 -24 -19 -16 -40 -3
-24 16 9 10 9 14 0 14 -18 0 -26 -31 -10 -41 11 -7 11 -9 -3 -9 -10 0 -18 -5
-18 -10 0 -6 -11 -8 -25 -4 -15 4 -25 2 -25 -5 0 -6 -8 -8 -17 -4 -16 6 -16 5
-3 -10 35 -38 39 -46 31 -52 -5 -3 -12 4 -16 15 -3 11 -13 20 -21 20 -8 0 -14
5 -14 10 0 6 -7 10 -15 10 -8 0 -15 7 -15 15 0 9 -9 15 -23 15 -13 0 -28 5
-34 11 -8 8 -15 4 -28 -13 l-17 -23 7 23 c7 26 -3 29 -20 6 -9 -13 -9 -23 -1
-40 11 -25 26 -32 26 -13 0 6 9 9 20 7 25 -4 27 -23 2 -24 -56 -3 -58 -4 -42
-15 13 -9 12 -10 -3 -5 -11 3 -20 0 -23 -9 -4 -8 -12 -15 -19 -15 -9 0 -14
-18 -17 -52 -2 -29 -3 -54 -2 -56 0 -1 13 2 27 7 18 7 27 7 29 -1 3 -8 10 -8
23 -1 18 10 17 11 -2 17 -11 4 -28 4 -37 0 -11 -4 -16 -1 -16 10 0 13 13 15
90 11 74 -3 90 -2 90 10 0 21 26 19 35 -2 4 -10 7 -32 6 -49 -2 -24 4 -37 24
-52 14 -11 31 -22 37 -24 7 -3 8 -10 4 -17 -5 -8 -11 -9 -15 -3 -11 17 -51 25
-51 9 0 -9 31 -24 88 -42 48 -15 90 -30 93 -34 4 -3 9 -21 13 -39 5 -28 3 -35
-14 -39 -11 -3 -20 -14 -20 -25 0 -10 5 -16 10 -13 18 11 10 -10 -10 -27 -11
-10 -22 -13 -25 -8 -9 15 -25 12 -25 -5 0 -8 -4 -15 -10 -15 -5 0 -10 7 -10
15 0 8 -4 15 -10 15 -5 0 -10 5 -10 11 0 5 4 8 9 4 6 -3 15 3 21 12 11 17 11
17 6 0 -5 -15 -2 -16 14 -7 11 6 20 15 20 21 0 6 -4 7 -10 4 -5 -3 -10 -2 -10
3 0 6 -9 8 -20 5 -11 -3 -26 -1 -33 5 -7 6 -22 11 -32 11 -11 -1 -35 2 -52 4
-18 3 -33 2 -33 -1 0 -4 -17 -7 -38 -7 -20 0 -93 -4 -160 -8 -112 -8 -126 -7
-144 10 -15 13 -22 14 -25 6 -3 -8 -15 -10 -34 -6 -20 4 -29 2 -29 -7 0 -9 -7
-7 -20 5 -11 10 -20 13 -20 7 0 -7 -9 -12 -21 -12 -16 0 -19 4 -14 23 14 46
17 43 -54 46 -65 2 -24 11 80 17 148 9 145 23 -5 21 l-126 -2 -1 -30 c-1 -18
-3 -23 -6 -12 -6 24 -26 16 -34 -14 l-7 -24 -1 26 c-1 17 6 30 21 38 22 11 22
11 1 6 -12 -3 -24 -1 -27 4 -4 5 -20 9 -37 9 -40 -1 -61 19 -28 27 23 5 80 13
107 14 7 1 12 15 12 36 0 38 -8 36 95 19 50 -9 127 -5 140 6 6 5 33 11 60 14
28 3 52 6 55 7 3 1 13 1 23 0 20 -3 23 12 5 27 -17 13 -80 18 -97 8 -9 -6 -12
-5 -8 1 4 6 1 16 -7 22 -11 9 -15 9 -19 -1 -3 -7 -5 20 -4 61 0 48 3 66 8 52
14 -36 15 -23 4 36 -10 56 -10 57 -16 23 -3 -19 -5 21 -3 90 1 69 5 139 9 156
4 19 1 53 -8 85 -9 30 -18 87 -21 127 -3 40 -8 77 -11 82 -3 6 -20 10 -37 10
-17 0 -28 3 -24 7 3 4 24 6 46 5 38 -3 42 0 68 41 15 25 45 56 67 71 23 14 64
49 92 79 28 29 61 60 73 68 19 13 23 26 27 89 5 75 5 75 -40 145 -25 39 -54
80 -66 93 -11 12 -21 28 -21 34 0 15 -45 83 -79 121 -15 16 -47 40 -72 53
l-47 23 -6 -37 c-3 -20 -6 -41 -5 -47 0 -5 2 -39 4 -74 4 -71 11 -95 24 -87 5
4 6 -5 2 -21 -4 -14 -15 -27 -24 -29 -13 -2 -17 6 -18 34 -1 21 -1 43 0 50 1
6 -8 12 -21 13 -22 1 -22 1 2 8 24 7 24 8 -7 12 -18 3 -38 1 -45 -4 -9 -6 -6
-7 7 -2 15 5 17 3 8 -6 -24 -24 -34 2 -32 87 l2 84 41 2 41 1 -45 6 c-45 6
-54 16 -28 32 10 7 10 9 1 9 -9 0 -13 16 -13 45 0 37 -3 45 -18 45 -20 0 -20
8 6 160 6 30 8 64 6 75 -8 46 -41 93 -88 128 -42 31 -58 37 -102 37 -36 0 -59
-6 -77 -20 -14 -11 -30 -20 -36 -20 -21 0 -41 -48 -45 -108 -2 -34 0 -62 5
-62 5 0 9 -4 9 -10 0 -5 -7 -10 -16 -10 -14 0 -15 -6 -8 -32 4 -18 7 -53 6
-77 -1 -29 5 -53 18 -71 11 -15 24 -39 30 -54 9 -25 21 -30 68 -26 19 1 22 -3
22 -33 0 -29 -4 -35 -25 -39 -30 -6 -34 7 -5 15 12 3 20 14 20 26 0 19 -1 20
-42 5 -24 -8 -53 -22 -66 -30 -29 -19 -83 -94 -76 -106 3 -5 1 -14 -4 -21 -6
-7 -18 -36 -28 -65 -9 -30 -25 -61 -34 -70 -27 -26 -40 -57 -40 -95 l0 -34
-112 -12 c-77 -9 -130 -20 -167 -37 -53 -24 -56 -24 -73 -7 -9 10 -19 27 -21
38 -2 11 -7 27 -10 35 -15 37 -25 93 -20 106 3 8 -1 14 -11 14 -18 0 -22 36
-5 42 21 7 -10 56 -55 84 -40 25 -47 35 -57 80 -12 52 -2 110 24 142 6 8 10
33 8 57 -1 28 4 53 15 70 16 24 16 29 1 60 -20 43 -43 57 -138 91 -80 28 -141
28 -152 0 -3 -7 -8 -130 -12 -272 -4 -143 -8 -264 -10 -270 -2 -6 -19 -8 -39
-6 -28 3 -38 10 -42 28 -5 19 -13 24 -38 24 -21 0 -27 -3 -18 -9 11 -7 11 -9
-2 -14 -10 -4 -16 -18 -16 -37 0 -17 -5 -52 -12 -78 -9 -35 -9 -47 0 -50 7 -2
12 -10 12 -17 0 -7 16 -46 35 -86 19 -41 35 -81 35 -91 0 -9 4 -20 10 -23 6
-4 10 -60 10 -136 0 -108 2 -129 15 -129 8 0 15 -4 15 -10 0 -5 -7 -10 -15
-10 -12 0 -15 -18 -17 -92 l-2 -93 -5 90 c-4 53 -9 82 -13 70 -14 -41 -50
-236 -45 -248 3 -8 26 -11 76 -9 l72 4 -1 186 c-1 310 0 376 6 369 3 -3 5
-163 4 -356 l-1 -351 31 0 c18 0 29 -4 25 -10 -3 -6 1 -10 9 -10 21 0 20 -19
-3 -49 -18 -24 -33 -26 -128 -20 -36 3 -42 6 -37 21 4 13 0 18 -16 18 -19 0
-20 -5 -19 -85 1 -47 -1 -89 -4 -92 -4 -3 -2 -14 3 -24 6 -10 6 -20 1 -23 -5
-3 -6 -25 -4 -49 5 -38 3 -45 -15 -49 -15 -4 -19 -2 -15 8 6 17 -13 19 -21 2
-3 -7 -3 -2 0 10 5 21 3 23 -15 17 -12 -3 -21 -3 -20 2 4 18 -21 63 -35 63
-21 0 -40 -37 -23 -43 6 -2 9 -8 5 -12 -4 -4 -15 -5 -24 -1 -12 4 -15 14 -10
34 3 15 3 21 0 14 -8 -19 -24 -14 -24 7 0 13 -7 19 -24 19 -19 0 -22 -5 -18
-22 3 -11 11 -29 20 -38 13 -16 13 -17 -6 -13 -12 2 -23 -3 -26 -11 -4 -11 1
-13 19 -10 22 4 24 2 15 -15 -9 -16 -7 -21 12 -29 16 -6 18 -9 6 -9 -9 -1 -19
3 -23 9 -3 5 -13 6 -22 3 -12 -5 -14 -3 -8 6 4 7 3 16 -2 20 -5 3 -13 29 -19
57 -9 44 -8 51 5 46 9 -3 12 -1 7 6 -4 7 -16 12 -27 12 -12 0 -17 -4 -13 -11
4 -8 0 -9 -15 -4 -13 4 -21 2 -21 -5 0 -6 5 -8 12 -4 8 5 9 2 4 -12 -5 -10
-11 -27 -13 -36 -7 -23 -19 -23 -33 -1 -9 15 -10 13 -8 -11 3 -28 5 -29 53
-30 38 -1 50 -5 53 -18 2 -12 -7 -20 -33 -27 -20 -5 -42 -9 -48 -7 -7 1 -9 1
-4 -1 4 -3 7 -9 7 -14 0 -6 -4 -8 -9 -5 -9 6 -21 -144 -21 -266 l0 -78 120 0
c66 0 120 2 120 5 0 3 -7 17 -16 30 -15 24 -15 25 2 25 13 0 15 3 7 8 -8 5 -9
13 -3 22 14 23 24 3 21 -45 l-3 -45 61 0 61 0 2 38 c0 20 1 43 1 50 -1 6 3 12
8 12 6 0 7 -21 3 -50 l-7 -50 334 1 c184 1 324 4 311 6 -12 2 -22 9 -22 14 0
5 -12 9 -26 9 -14 0 -23 4 -20 9 4 5 0 11 -6 14 -7 2 -11 7 -7 10 3 4 46 -4
95 -17 66 -16 96 -20 112 -13 12 6 22 14 22 19 0 4 11 8 25 8 14 0 25 -4 25
-10 0 -5 -10 -10 -22 -10 -13 0 -30 -4 -38 -10 -23 -15 26 -28 108 -29 l72 0
0 34 c0 27 4 35 18 35 15 0 17 -6 14 -35 l-4 -35 181 0 c108 0 180 4 177 9 -4
5 0 11 6 14 9 3 3 15 -16 36 -17 17 -26 31 -22 31 14 0 65 -54 59 -63 -3 -5 5
-4 17 3 21 11 22 10 17 -9 -5 -22 -4 -22 144 -20 82 1 149 5 149 10 0 5 9 4
19 -3 15 -9 23 -9 36 2 12 10 19 10 27 2 14 -14 1748 -17 1748 -3 0 4 11 6 25
3 33 -6 33 16 0 24 -14 3 -25 11 -25 16 0 6 9 8 21 5 13 -3 19 -1 16 6 -2 7
-10 12 -18 12 -9 0 -16 15 -20 42 -5 38 -19 72 -19 46 0 -9 -19 -10 -52 -4 -4
0 -2 12 4 26 8 18 17 24 27 20 9 -4 40 -12 68 -18 48 -10 54 -9 68 8 15 19 16
19 10 -5 -6 -23 -5 -22 17 7 12 18 26 33 31 33 16 0 6 -29 -18 -51 -26 -25
-34 -64 -13 -57 22 8 39 -20 36 -57 -1 -25 -6 -34 -16 -30 -7 3 -18 5 -23 5
-5 0 -9 12 -9 26 0 14 -4 23 -9 20 -5 -3 -8 -23 -8 -45 l1 -40 208 0 c173 -1
208 2 208 13 0 8 -16 20 -36 26 -44 15 -40 23 6 10 28 -8 35 -7 47 10 8 11 19
18 24 15 5 -4 9 1 9 9 0 9 -4 16 -10 16 -5 0 -10 5 -10 11 0 5 4 8 9 4 6 -3 9
27 9 72 -1 93 7 124 28 116 12 -5 15 1 13 23 -3 40 11 163 23 194 12 30 15 64
24 233 3 70 10 127 15 127 5 0 9 -12 10 -27 2 -79 5 -109 11 -119 4 -6 10 -58
13 -115 10 -159 13 -182 27 -190 15 -10 26 -198 17 -299 -5 -59 -8 -56 -14 15
-1 11 -3 26 -4 33 -3 28 -22 9 -21 -20 3 -56 0 -88 -8 -88 -4 0 -7 23 -7 52 0
32 -5 53 -12 55 -10 3 -13 -12 -14 -54 0 -42 -3 -52 -9 -38 -5 11 -9 37 -9 58
-1 50 -21 48 -21 -3 0 -23 -5 -40 -11 -40 -7 0 -9 11 -6 28 7 34 -8 64 -22 43
-13 -20 -11 -108 3 -108 6 0 34 -7 63 -16 28 -8 55 -12 59 -9 5 4 2 -1 -5 -11
-8 -9 -12 -20 -9 -23 3 -2 63 -3 134 -2 112 3 125 5 102 15 -33 15 -38 38 -7
28 25 -8 49 -13 67 -14 6 -1 12 -8 12 -16 0 -11 10 -15 38 -14 20 1 29 3 20 6
-10 2 -18 11 -18 20 0 9 6 13 15 9 10 -4 15 1 15 14 0 11 -7 20 -15 20 -22 0
-18 37 4 50 32 16 41 12 41 -20 0 -28 11 -36 43 -31 4 0 7 -4 7 -9 0 -6 16
-10 35 -10 19 0 35 -5 35 -10 0 -6 10 -8 23 -5 14 4 28 1 35 -8 7 -8 22 -12
36 -10 13 3 27 0 30 -6 9 -14 156 -15 156 -1 0 6 8 10 18 11 14 0 14 2 -3 8
-11 5 -22 4 -23 0 -2 -5 -8 -7 -13 -3 -20 12 -48 12 -53 -2 -6 -16 -52 -19
-61 -5 -3 5 9 11 27 13 l33 4 -25 11 c-14 7 -20 12 -15 13 6 1 25 3 43 5 31 3
58 15 34 15 -7 0 -12 8 -13 18 0 14 -2 14 -9 -3 -7 -17 -9 -17 -9 -2 -1 11 -9
17 -23 16 -17 -1 -19 -2 -5 -6 28 -7 20 -22 -12 -21 -20 1 -28 5 -24 14 3 8 0
14 -6 14 -6 0 -10 -6 -8 -12 4 -21 -53 -22 -69 -1 -7 10 -13 23 -13 28 0 6 5
3 12 -6 14 -19 63 -38 53 -20 -4 6 -15 11 -24 12 -11 0 -12 3 -4 6 6 2 13 17
13 31 1 27 1 27 9 -3 l8 -30 1 33 c0 18 7 39 14 47 17 17 42 3 34 -19 -3 -8
-2 -18 3 -21 4 -3 11 1 13 7 3 7 6 3 6 -9 1 -13 7 -23 14 -23 8 0 24 -9 37
-20 29 -25 37 -25 52 0 15 23 62 27 82 7 19 -19 24 -51 10 -65 -18 -16 -27
-15 -21 2 4 10 1 13 -8 9 -8 -3 -12 -9 -9 -14 2 -5 0 -18 -6 -29 -9 -17 -8
-20 10 -20 11 0 20 7 20 15 0 8 7 15 15 15 8 0 15 -6 15 -14 0 -11 34 -14 185
-15 193 0 203 2 168 42 -17 18 -17 19 12 15 26 -3 30 -7 27 -30 l-3 -28 79 0
c75 0 80 1 75 20 -8 30 -24 36 -40 14 -12 -16 -15 -17 -23 -4 -5 8 -10 18 -10
21 0 11 48 17 61 8 7 -4 25 -1 40 6 17 9 76 16 160 20 74 3 144 8 155 10 19 4
21 1 19 -27 -1 -18 -8 -34 -14 -36 -6 -2 -11 0 -10 5 3 18 -2 33 -11 33 -5 0
-10 -6 -10 -14 0 -15 -24 -28 -34 -19 -3 3 2 12 11 18 15 11 14 12 -9 12 -16
0 -30 -7 -37 -21 -11 -21 -12 -21 -7 2 3 16 -1 22 -15 22 -10 0 -18 -3 -18 -7
4 -22 -2 -43 -11 -43 -6 0 -10 7 -8 16 5 26 -19 28 -27 2 l-7 -23 -6 23 -7 22
-19 -25 c-23 -30 -36 -32 -36 -5 0 25 -9 25 -26 3 -13 -17 -14 -17 -8 0 3 9 2
17 -4 17 -10 0 -22 -23 -22 -41 0 -5 91 -9 215 -9 181 0 215 2 215 15 0 8 -14
17 -35 21 -19 3 -38 10 -41 15 -7 11 3 11 44 0 30 -9 32 -8 32 15 0 14 -6 24
-14 24 -22 0 -70 20 -63 26 3 3 21 1 41 -4 33 -10 35 -9 33 11 -4 44 -67 50
-87 10 l-13 -28 -11 28 c-11 31 -26 36 -26 8 0 -29 -17 -35 -31 -10 -10 20
-12 20 -21 6 -12 -23 -28 -21 -28 2 0 11 -4 23 -10 26 -5 3 -10 1 -10 -5 0 -6
-5 -8 -12 -4 -7 5 -9 2 -6 -8 4 -8 2 -21 -2 -29 -7 -11 -10 -10 -16 4 -6 17
-7 17 -27 0 -20 -18 -20 -18 -7 7 12 24 12 24 -18 -4 -26 -25 -32 -27 -38 -13
-3 9 -3 21 1 27 3 5 -1 10 -9 10 -9 0 -16 -6 -16 -12 0 -9 -4 -8 -10 2 -8 12
-10 10 -8 -9 2 -19 -2 -25 -23 -28 -20 -2 -29 3 -39 24 l-13 28 -9 -33 c-10
-39 -28 -33 -28 9 0 27 2 29 41 29 44 0 43 -4 23 59 -6 18 1 22 71 37 54 12
155 15 155 5 0 -6 -7 -11 -16 -11 -13 0 -14 -3 -5 -13 6 -8 8 -17 4 -20 -11
-12 -23 -8 -23 8 0 25 -17 17 -25 -12 -7 -26 -8 -26 -15 -8 -4 11 -5 26 -3 33
3 6 1 12 -4 12 -5 0 -14 -14 -20 -31 -13 -34 -33 -31 -33 4 l-1 22 -12 -21
c-7 -12 -17 -19 -23 -17 -12 4 -29 -45 -19 -55 3 -3 5 -1 5 5 0 22 308 40 383
22 l47 -11 0 -84 0 -84 75 0 c41 0 75 3 76 8 4 62 10 94 23 126 9 21 16 49 16
62 0 16 6 24 17 24 12 0 14 3 6 11 -15 15 -56 -7 -49 -26 3 -8 1 -17 -4 -20
-6 -4 -10 0 -10 7 0 8 -13 22 -30 31 -18 11 -27 23 -23 32 8 21 23 18 23 -4 0
-10 7 -21 14 -24 9 -4 13 -1 10 6 -2 7 2 21 9 31 11 15 17 16 35 7 14 -7 23
-8 27 -1 4 6 11 8 16 5 9 -6 20 -9 69 -18 14 -2 19 -2 12 0 -7 3 -10 9 -7 14
9 14 35 11 35 -5 0 -9 8 -12 25 -8 28 5 30 0 15 -29 -8 -15 -23 -19 -63 -21
-50 -1 -50 -2 -9 -5 l42 -4 0 -98 0 -98 25 5 c17 3 25 11 25 24 0 14 5 18 15
15 19 -8 31 11 16 26 -9 9 -14 9 -20 -1 -6 -11 -10 -10 -15 3 -9 23 12 47 38
43 15 -2 22 -12 24 -31 3 -23 8 -27 33 -27 26 0 29 -3 29 -30 l0 -30 135 0
c74 0 135 3 135 6 0 4 -8 13 -17 20 -10 7 -13 14 -6 14 6 0 11 15 11 34 0 44
8 56 37 56 17 0 26 -8 34 -30 6 -18 6 -30 0 -30 -5 0 -9 -16 -9 -35 l0 -35
130 0 c109 0 130 2 130 15 0 21 20 19 21 -2 0 -15 2 -15 9 2 7 17 9 17 9 3 1
-16 46 -18 709 -18 463 0 702 4 692 10 -13 8 -12 10 3 10 14 0 17 9 17 45 0
36 3 45 18 45 14 0 15 -2 2 -10 -13 -8 -13 -10 2 -10 9 0 19 6 21 13 3 7 6 5
6 -5 1 -11 9 -18 21 -18 21 0 40 -27 40 -59 0 -21 4 -21 230 -21 147 0 230 4
230 10 0 6 11 10 25 10 l25 0 0 136 c0 104 -3 135 -12 131 -8 -2 -12 -18 -11
-38 3 -36 -1 -32 -12 15 -9 42 -23 20 -28 -44 l-3 -55 -2 58 c-2 57 -8 67 -29
46 -8 -8 -12 34 -13 157 0 99 -5 173 -11 179 -7 7 -10 -22 -9 -90 3 -210 0
-295 -10 -295 -5 0 -7 7 -4 15 4 8 -1 26 -10 40 -10 16 -16 46 -16 87 0 58 -1
61 -17 45 -13 -13 -14 -21 -6 -39 10 -21 11 -50 3 -103 -5 -40 -19 73 -19 168
-1 88 7 115 24 87 3 -5 1 -10 -4 -10 -12 0 -15 -39 -5 -64 3 -9 10 -16 15 -16
13 0 11 77 -2 102 -8 14 -8 23 0 31 6 6 11 19 11 29 0 19 34 81 41 74 6 -6 14
98 14 186 0 69 1 75 16 62 8 -8 19 -14 24 -14 15 0 -6 114 -42 224 -35 109
-36 111 -29 229 4 66 11 128 17 138 20 38 49 205 49 283 0 45 -7 108 -14 140
-14 61 -12 101 5 74 5 -7 8 34 6 96 l-2 110 -28 7 c-16 4 -41 3 -55 -3 -26 -9
-26 -10 -7 -18 26 -10 53 -40 36 -40 -8 0 -7 -6 3 -16 9 -8 20 -12 26 -9 5 3
10 0 10 -8 0 -7 -7 -14 -15 -14 -8 0 -15 4 -15 9 0 5 -9 7 -20 3 -11 -4 -29 0
-42 9 -12 9 -18 16 -13 17 6 1 -15 8 -45 15 -88 23 -90 23 -90 14 0 -5 -15
-12 -33 -15 l-34 -7 0 -71 c1 -119 -4 -233 -10 -219 -4 10 -8 10 -19 1 -11 -9
-14 -7 -14 14 0 14 -4 29 -10 32 -5 3 -10 19 -10 36 0 16 -2 29 -5 29 -11 0
-104 -108 -146 -170 -51 -75 -67 -139 -50 -199 6 -19 9 -37 7 -40 -3 -4 2 -29
9 -58 11 -41 11 -73 2 -164 l-12 -112 -24 74 c-12 41 -29 84 -37 97 -13 19
-13 26 1 52 17 34 19 71 5 119 -6 21 -6 40 0 51 5 10 12 57 15 105 2 48 10 93
15 101 6 7 14 37 17 66 4 44 1 63 -23 116 -26 56 -44 78 -44 52 0 -5 -4 -10
-10 -10 -5 0 -10 20 -10 45 0 35 -10 64 -41 120 -37 68 -40 79 -33 117 5 24 8
50 7 58 -1 8 5 19 13 23 20 11 17 24 -6 30 -11 3 -24 16 -29 29 -6 12 -10 17
-10 10 -1 -8 -6 -10 -13 -5 -7 4 -20 9 -29 10 -9 1 -52 17 -95 34 -43 17 -96
34 -117 37 -20 2 -40 9 -43 13 -6 11 -28 12 -37 2z m54 -155 c-9 -20 -10 -18
-10 17 0 31 2 36 9 23 6 -10 7 -25 1 -40z m-4271 -34 c0 -8 -4 -12 -10 -9 -5
3 -10 13 -10 21 0 8 5 12 10 9 6 -3 10 -13 10 -21z m17 -6 c-3 -7 -5 -2 -5 12
0 14 2 19 5 13 2 -7 2 -19 0 -25z m30 0 c-3 -7 -5 -2 -5 12 0 14 2 19 5 13 2
-7 2 -19 0 -25z m-110 -10 c-3 -8 -6 -5 -6 6 -1 11 2 17 5 13 3 -3 4 -12 1
-19z m-2717 -19 c0 -5 -9 -9 -19 -9 -11 0 -22 4 -25 9 -3 5 6 9 19 9 14 0 25
-4 25 -9z m30 1 c0 -5 -5 -10 -11 -10 -5 0 -7 5 -4 10 3 6 8 10 11 10 2 0 4
-4 4 -10z m2770 -81 c0 -11 -4 -17 -10 -14 -5 3 -10 15 -10 26 0 11 5 17 10
14 6 -3 10 -15 10 -26z m-93 -11 c-3 -7 -5 -2 -5 12 0 14 2 19 5 13 2 -7 2
-19 0 -25z m208 -38 c22 -10 21 -11 -15 -15 -30 -3 -43 3 -35 16 7 11 23 11
50 -1z m85 -10 c0 -5 -7 -10 -15 -10 -8 0 -15 5 -15 10 0 6 7 10 15 10 8 0 15
-4 15 -10z m-2940 -10 c0 -5 -4 -10 -10 -10 -5 0 -10 5 -10 10 0 6 5 10 10 10
6 0 10 -4 10 -10z m2753 -30 c3 -11 1 -20 -4 -20 -5 0 -9 9 -9 20 0 11 2 20 4
20 2 0 6 -9 9 -20z m24 -17 c-3 -10 -5 -4 -5 12 0 17 2 24 5 18 2 -7 2 -21 0
-30z m-47 -25 c0 -51 -5 -47 -14 10 -4 29 -3 41 4 37 5 -3 10 -25 10 -47z
m-123 20 c-3 -8 -6 -5 -6 6 -1 11 2 17 5 13 3 -3 4 -12 1 -19z m33 -18 c0 -22
-3 -40 -8 -40 -4 0 -6 18 -4 40 2 22 6 40 8 40 2 0 4 -18 4 -40z m27 3 c-3
-10 -5 -4 -5 12 0 17 2 24 5 18 2 -7 2 -21 0 -30z m33 -5 c0 -23 -3 -38 -6
-35 -10 10 -12 77 -2 77 4 0 8 -19 8 -42z m-2505 12 c3 -6 -4 -10 -17 -10 -18
0 -20 2 -8 10 19 12 18 12 25 0z m765 -20 c0 -5 -4 -10 -10 -10 -5 0 -7 -7 -4
-15 4 -8 1 -15 -5 -15 -12 0 -15 32 -4 43 10 10 23 8 23 -3z m1641 -5 c7 17 8
16 8 -7 1 -21 -3 -25 -19 -21 -12 3 -20 14 -20 27 1 20 1 20 12 1 11 -19 11
-19 19 0z m150 -18 c-8 -8 -11 -7 -11 4 0 20 13 34 18 19 3 -7 -1 -17 -7 -23z
m4339 9 c0 -16 -18 -31 -27 -22 -8 8 5 36 17 36 5 0 10 -6 10 -14z m-1470 -15
c0 -5 -9 -7 -20 -4 -11 3 -20 7 -20 9 0 2 9 4 20 4 11 0 20 -4 20 -9z m1655
-1 c3 -5 1 -10 -4 -10 -6 0 -11 5 -11 10 0 6 2 10 4 10 3 0 8 -4 11 -10z
m-7215 -40 c0 -5 -12 -10 -26 -10 -14 0 -23 4 -19 10 3 6 15 10 26 10 10 0 19
-4 19 -10z m2450 0 c-20 -13 -50 -13 -50 0 0 6 15 10 33 10 24 0 28 -3 17 -10z
m22 -63 c-10 -12 -25 -85 -26 -124 -1 -29 -11 -37 -33 -24 -17 10 -17 10 1 11
19 0 19 1 2 13 -14 10 -18 27 -18 73 0 97 -2 94 37 94 26 0 35 4 37 18 0 9 3
2 5 -16 3 -18 0 -39 -5 -45z m205 51 c-3 -8 -6 -5 -6 6 -1 11 2 17 5 13 3 -3
4 -12 1 -19z m43 0 c0 -18 -2 -20 -9 -8 -6 8 -7 18 -5 22 9 14 14 9 14 -14z
m-2714 -35 c-10 -10 -19 5 -10 18 6 11 8 11 12 0 2 -7 1 -15 -2 -18z m54 12
c0 -1 -9 -5 -20 -8 -12 -3 -20 0 -20 8 0 8 8 11 20 8 11 -3 20 -7 20 -8z
m1572 -1 c-12 -44 -14 -47 -23 -33 -15 24 -10 47 9 45 9 -2 16 -7 14 -12z m25
2 c-3 -8 -1 -17 6 -20 7 -2 4 -5 -5 -5 -10 -1 -18 1 -18 3 0 10 13 36 17 36 3
0 3 -6 0 -14z m76 -3 c-7 -2 -19 -2 -25 0 -7 3 -2 5 12 5 14 0 19 -2 13 -5z
m87 3 c0 -3 -4 -8 -10 -11 -5 -3 -10 -1 -10 4 0 6 5 11 10 11 6 0 10 -2 10 -4z
m34 -11 c-4 -8 -8 -15 -10 -15 -2 0 -4 7 -4 15 0 8 4 15 10 15 5 0 7 -7 4 -15z
m2876 6 c0 -16 -12 -41 -20 -41 -4 0 -5 11 -2 25 4 23 22 36 22 16z m-5633
-49 c7 -24 9 -42 5 -40 -4 2 -24 10 -44 18 -28 10 -38 20 -38 35 0 29 9 37 39
33 20 -2 28 -12 38 -46z m3623 21 c-1 -24 -2 -26 -11 -10 -5 9 -7 22 -4 27 10
17 15 11 15 -17z m-990 7 c0 -5 -5 -10 -11 -10 -5 0 -7 5 -4 10 3 6 8 10 11
10 2 0 4 -4 4 -10z m807 -42 c-2 -13 -4 -5 -4 17 -1 22 1 32 4 23 2 -10 2 -28
0 -40z m153 30 c0 -19 -2 -20 -10 -8 -13 19 -13 30 0 30 6 0 10 -10 10 -22z
m-2750 3 c0 -5 -6 -11 -12 -14 -18 -6 -39 3 -32 14 7 12 44 12 44 0z m40 -1
c0 -5 -4 -10 -10 -10 -5 0 -10 5 -10 10 0 6 5 10 10 10 6 0 10 -4 10 -10z
m2537 -5 c0 -8 -4 -12 -9 -9 -4 3 -8 9 -8 15 0 5 4 9 8 9 5 0 9 -7 9 -15z
m1513 0 c10 -12 10 -15 -4 -15 -10 0 -16 -9 -16 -24 0 -19 -7 -26 -31 -31 -17
-4 -33 -5 -36 -2 -3 3 -2 24 2 46 6 38 9 41 40 41 18 0 38 -7 45 -15z m70 5
c0 -5 -7 -10 -16 -10 -8 0 -12 5 -9 10 3 6 10 10 16 10 5 0 9 -4 9 -10z
m-2433 -22 c-3 -8 -6 -5 -6 6 -1 11 2 17 5 13 3 -3 4 -12 1 -19z m-2627 -39
c0 -6 -4 -7 -10 -4 -5 3 -10 11 -10 16 0 6 5 7 10 4 6 -3 10 -11 10 -16z
m6381 -12 c-10 -9 -11 -8 -5 6 3 10 9 15 12 12 3 -3 0 -11 -7 -18z m-5621 -3
c0 -2 -9 -4 -21 -4 -11 0 -18 4 -14 10 5 8 35 3 35 -6z m255 6 c3 -5 -3 -10
-15 -10 -12 0 -18 5 -15 10 3 6 10 10 15 10 5 0 12 -4 15 -10z m-175 -4 c0 -9
-40 -13 -46 -5 -3 5 6 9 20 9 14 0 26 -2 26 -4z m123 -3 c-7 -2 -21 -2 -30 0
-10 3 -4 5 12 5 17 0 24 -2 18 -5z m1944 -35 c-3 -7 -5 -2 -5 12 0 14 2 19 5
13 2 -7 2 -19 0 -25z m-1797 1 c0 -5 -13 -9 -30 -9 -35 0 -41 17 -7 22 26 5
37 1 37 -13z m-140 1 c0 -5 -13 -10 -30 -10 -16 0 -30 5 -30 10 0 6 14 10 30
10 17 0 30 -4 30 -10z m70 0 c0 -5 -14 -10 -31 -10 -17 0 -28 4 -24 10 3 6 17
10 31 10 13 0 24 -4 24 -10z m3555 -81 c-30 -123 -46 -194 -51 -234 -7 -58
-29 -117 -62 -171 l-29 -46 -7 55 c-3 31 -17 96 -30 146 l-25 91 37 66 c20 37
52 79 70 93 19 14 50 40 70 58 45 39 49 29 27 -58z m-2632 41 c9 -11 12 -21 7
-21 -33 -4 -45 -2 -42 9 1 7 -4 12 -10 12 -9 0 -8 4 2 10 21 13 23 13 43 -10z
m-638 -10 c-28 -12 -55 -12 -55 0 0 6 17 10 38 9 30 0 33 -2 17 -9z m5125 0
c0 -5 -4 -10 -10 -10 -5 0 -10 5 -10 10 0 6 5 10 10 10 6 0 10 -4 10 -10z
m-5050 -4 c0 -3 -4 -8 -10 -11 -5 -3 -10 -1 -10 4 0 6 5 11 10 11 6 0 10 -2
10 -4z m1993 -3 c-7 -2 -19 -2 -25 0 -7 3 -2 5 12 5 14 0 19 -2 13 -5z m-2456
-16 c-5 -15 -129 -15 -134 0 -3 8 18 11 67 11 46 0 70 -4 67 -11z m83 9 c0 -2
-7 -6 -15 -10 -8 -3 -15 -1 -15 4 0 6 7 10 15 10 8 0 15 -2 15 -4z m1607 -18
c-3 -8 -6 -5 -6 6 -1 11 2 17 5 13 3 -3 4 -12 1 -19z m280 0 c-3 -8 -6 -5 -6
6 -1 11 2 17 5 13 3 -3 4 -12 1 -19z m-1497 -4 c0 -8 -5 -12 -10 -9 -6 4 -8
11 -5 16 9 14 15 11 15 -7z m1990 6 c0 -5 -10 -10 -22 -9 -22 0 -22 1 -3 9 11
5 21 9 23 9 1 1 2 -3 2 -9z m3070 0 c0 -5 -7 -10 -15 -10 -8 0 -15 5 -15 10 0
6 7 10 15 10 8 0 15 -4 15 -10z m-5287 -7 c-7 -2 -19 -2 -25 0 -7 3 -2 5 12 5
14 0 19 -2 13 -5z m587 -3 c0 -5 -7 -10 -16 -10 -8 0 -12 5 -9 10 3 6 10 10
16 10 5 0 9 -4 9 -10z m1341 -40 c-3 -3 -6 -9 -6 -15 -1 -5 -4 -29 -9 -52 -7
-38 -11 -43 -34 -42 l-27 1 25 8 c22 6 23 8 8 15 -10 4 -15 11 -12 16 3 5 9 7
14 4 5 -3 11 -1 15 5 3 5 -1 10 -9 10 -9 0 -16 7 -16 15 0 8 7 15 16 15 8 0
12 5 9 10 -4 6 -4 18 -1 26 5 12 8 13 20 2 7 -7 11 -15 7 -18z m279 20 c0 -5
-7 -10 -15 -10 -8 0 -15 5 -15 10 0 6 7 10 15 10 8 0 15 -4 15 -10z m3085 0
c3 -5 2 -10 -4 -10 -5 0 -13 5 -16 10 -3 6 -2 10 4 10 5 0 13 -4 16 -10z
m-3498 -20 c29 0 53 -2 53 -4 0 -2 3 -11 6 -20 5 -13 -2 -16 -40 -16 -30 0
-46 -4 -46 -12 0 -10 -3 -9 -9 1 -5 7 -13 11 -19 7 -6 -3 -12 9 -14 29 -3 23
-1 32 6 25 6 -6 34 -10 63 -10z m4358 10 c-3 -5 -11 -10 -16 -10 -6 0 -7 5 -4
10 3 6 11 10 16 10 6 0 7 -4 4 -10z m-3945 -20 c0 -5 -8 -11 -17 -11 -17 -1
-17 -2 0 -6 9 -2 17 -9 17 -14 0 -5 -8 -10 -17 -10 -17 -1 -17 -2 0 -6 20 -5
23 -23 5 -23 -9 0 -8 -4 2 -10 9 -6 11 -13 5 -17 -12 -9 -13 -33 -2 -50 6 -9
3 -11 -10 -6 -16 6 -16 5 -4 -10 11 -14 11 -17 0 -17 -10 0 -10 -3 -1 -12 15
-15 16 -48 1 -48 -8 0 -8 -5 1 -15 10 -12 10 -15 -4 -15 -19 0 -25 -22 -30
-122 -2 -42 -7 -81 -11 -87 -3 -7 -9 -75 -11 -154 -12 -362 -16 -427 -29 -410
-10 14 -12 9 -9 -28 2 -31 1 -36 -5 -19 -8 30 -33 37 -55 15 -12 -12 -16 -13
-17 -3 0 10 -2 10 -6 1 -6 -17 -23 -17 -23 0 0 9 -11 13 -32 12 -18 -2 -39 2
-45 7 -9 7 -13 7 -13 1 0 -6 -12 -9 -27 -7 -16 2 -22 1 -15 -2 17 -8 15 -25
-3 -18 -12 5 -15 -3 -15 -39 0 -41 -2 -46 -22 -45 -41 2 -48 -2 -48 -21 0 -13
-9 -20 -30 -23 -16 -2 -32 0 -35 6 -2 6 -2 1 1 -12 6 -26 -19 -57 -41 -49 -11
5 -10 16 6 69 13 45 19 93 19 169 0 73 4 111 14 124 18 25 9 55 -18 56 -21 0
-21 0 2 9 23 10 23 10 27 138 1 56 -2 75 -14 81 -13 8 -12 11 2 26 21 20 21 6
-3 161 -29 188 -31 178 38 193 31 7 67 19 79 27 12 8 35 14 50 15 15 0 78 15
138 32 l110 32 5 65 c5 63 6 65 35 71 46 10 55 10 55 -1z m-2010 -36 c0 -9
-12 -14 -36 -14 -19 0 -44 -5 -55 -10 -17 -9 -19 -7 -19 17 0 28 1 28 55 25
39 -3 55 -8 55 -18z m537 0 c-3 -3 -12 -4 -19 -1 -8 3 -5 6 6 6 11 1 17 -2 13
-5z m1630 -41 c-3 -10 -5 -4 -5 12 0 17 2 24 5 18 2 -7 2 -21 0 -30z m243 -3
c0 -5 -7 -10 -16 -10 -8 0 -12 5 -9 10 3 6 10 10 16 10 5 0 9 -4 9 -10z m1313
-7 c-7 -2 -19 -2 -25 0 -7 3 -2 5 12 5 14 0 19 -2 13 -5z m2159 -24 c17 -16
37 -28 44 -25 8 3 14 1 14 -4 0 -6 11 -10 25 -10 16 0 25 6 25 15 0 23 47 38
73 23 19 -11 20 -13 5 -16 -10 -2 -18 -7 -18 -11 0 -4 64 -5 143 -3 78 3 165
5 192 6 l50 1 2 -70 c4 -113 24 -366 34 -419 5 -28 18 -59 28 -70 17 -19 32
-73 47 -178 4 -26 2 -36 -8 -35 -7 0 -56 -1 -109 -1 l-97 -2 -1 -92 c-1 -80
-4 -161 -10 -244 -1 -15 -7 -20 -23 -19 -12 1 -24 7 -26 14 -2 7 3 11 11 9 9
-2 16 2 17 7 0 6 -10 11 -24 13 -20 3 -24 0 -19 -17 6 -23 -7 -27 -26 -8 -10
10 -11 9 -6 -5 4 -10 11 -18 16 -18 5 0 9 -15 9 -34 0 -29 -3 -33 -20 -29 -30
8 -35 23 -11 30 25 6 27 16 6 33 -11 9 -15 9 -15 1 0 -9 -13 -10 -45 -5 -25 3
-45 5 -46 3 0 -2 -2 -33 -5 -69 -3 -36 -10 -69 -15 -75 -11 -11 -12 -26 -1
-22 7 2 12 -6 12 -23 0 -16 -22 -12 -36 8 -12 16 -14 16 -29 -3 l-16 -20 4 20
c3 16 -2 20 -26 21 -16 1 -33 7 -37 14 -4 7 -13 9 -19 6 -6 -4 -11 -2 -11 5 0
8 -5 7 -12 -4 -15 -18 -128 -33 -128 -17 0 8 37 13 66 9 8 -1 24 22 24 34 0 4
-7 7 -15 7 -8 0 -15 -6 -15 -12 0 -9 -4 -8 -10 2 -5 8 -10 10 -10 4 0 -6 -29
-9 -81 -8 -74 2 -81 0 -89 -19 -4 -12 -6 -25 -4 -28 2 -4 -15 -7 -39 -7 -23 0
-88 -6 -144 -13 l-103 -12 0 -37 c0 -25 -5 -40 -16 -44 -25 -9 -66 -6 -99 8
l-30 13 38 7 c21 4 35 11 32 17 -4 5 0 9 9 9 8 0 17 -6 19 -12 3 -8 6 -5 6 6
1 15 -4 17 -28 13 -33 -7 -33 -7 -6 78 21 68 46 196 39 206 -15 25 131 36 189
13 9 -3 17 -1 17 4 0 6 -21 13 -47 17 -99 12 -113 16 -122 34 -9 16 -7 17 14
13 15 -2 25 0 25 7 0 6 -11 11 -24 11 -19 0 -23 4 -19 18 3 14 12 18 31 15
l27 -3 -27 11 c-23 9 -28 17 -28 43 0 18 2 35 5 38 3 3 7 54 9 114 3 60 7 120
10 134 18 77 34 112 56 123 36 18 48 94 46 287 -1 91 -6 182 -10 202 l-8 37
58 -5 c60 -5 225 -31 257 -40 13 -4 20 3 28 25 6 17 13 31 16 31 2 0 18 -14
35 -31z m205 9 c-3 -8 -6 -5 -6 6 -1 11 2 17 5 13 3 -3 4 -12 1 -19z m-3890
-10 c-3 -8 -6 -5 -6 6 -1 11 2 17 5 13 3 -3 4 -12 1 -19z m-947 2 c0 -5 -5
-10 -11 -10 -5 0 -7 5 -4 10 3 6 8 10 11 10 2 0 4 -4 4 -10z m2273 3 c-7 -2
-19 -2 -25 0 -7 3 -2 5 12 5 14 0 19 -2 13 -5z m-2954 -7 c-2 -2 -24 -6 -49
-9 -30 -4 -38 -3 -25 3 19 8 83 14 74 6z m5411 -4 c0 -5 -7 -9 -15 -9 -8 0
-12 4 -9 9 3 4 9 8 15 8 5 0 9 -4 9 -8z m1260 -7 c0 -8 -9 -15 -21 -15 -11 0
-18 -4 -14 -9 3 -5 1 -12 -5 -16 -6 -4 -10 6 -10 24 0 26 4 31 25 31 16 0 25
-6 25 -15z m-7983 -1 c-3 -3 -12 -4 -19 -1 -8 3 -5 6 6 6 11 1 17 -2 13 -5z
m550 0 c-3 -3 -12 -4 -19 -1 -8 3 -5 6 6 6 11 1 17 -2 13 -5z m1720 -26 c-3
-7 -5 -2 -5 12 0 14 2 19 5 13 2 -7 2 -19 0 -25z m149 25 c-15 -4 -16 -7 -5
-14 11 -7 9 -9 -8 -9 -16 0 -21 4 -17 15 4 8 16 14 28 14 19 -1 19 -2 2 -6z
m-1916 -24 c0 -5 0 -11 0 -14 0 -14 -15 -4 -21 14 -6 15 -4 19 7 14 7 -3 14
-9 14 -14z m840 5 c-36 -8 -100 -9 -100 -2 0 5 26 7 58 7 31 -1 50 -3 42 -5z
m57 0 c-3 -3 -12 -4 -19 -1 -8 3 -5 6 6 6 11 1 17 -2 13 -5z m4586 -19 c4 -8
15 -15 23 -15 12 0 12 -5 -3 -27 -30 -47 -59 -56 -87 -27 -19 18 -21 64 -3 65
9 0 9 2 -1 6 -6 2 -9 9 -6 15 9 14 67 1 77 -17z m-6011 -59 c6 -84 79 -326 99
-326 13 0 11 -47 -2 -55 -24 -15 -32 -64 -30 -175 2 -63 8 -124 14 -135 7 -11
12 -38 13 -60 0 -22 3 -62 6 -90 3 -27 3 -40 1 -28 -5 27 -21 30 -39 6 -7 -10
-16 -15 -20 -11 -4 5 0 16 9 26 16 18 15 18 -26 12 -24 -3 -41 -11 -40 -18 2
-6 -4 -9 -11 -6 -8 3 -27 -2 -41 -12 -26 -17 -28 -17 -42 2 -12 16 -15 17 -23
4 -12 -18 -30 -79 -30 -101 0 -9 10 -24 23 -32 12 -9 17 -16 10 -16 -6 -1 -15
3 -18 9 -3 5 -11 10 -16 10 -6 0 -7 -5 -4 -10 6 -10 1 -12 -46 -13 -20 -1 -25
-5 -21 -22 3 -16 -2 -21 -20 -22 -14 -1 -18 1 -10 6 17 10 4 44 -15 37 -8 -3
-18 -6 -23 -6 -4 0 -11 -15 -15 -32 -4 -18 -9 -27 -12 -20 -2 6 -11 12 -18 12
-7 0 -15 7 -19 15 -4 13 -2 14 14 5 16 -9 20 -8 20 5 0 9 -9 15 -24 15 -35 0
-40 -15 -12 -37 22 -18 22 -20 8 -31 -16 -10 -15 -11 1 -6 9 4 17 2 17 -3 0
-6 -16 -9 -35 -8 -29 1 -39 -4 -55 -29 -11 -17 -20 -26 -20 -19 0 6 5 15 10
18 6 3 10 11 10 16 0 6 -6 7 -12 3 -10 -6 -10 -5 -1 7 10 12 8 17 -7 27 -17
10 -18 16 -8 37 13 28 17 27 23 -5 4 -23 35 -51 47 -44 13 8 -4 35 -19 30 -11
-4 -13 -1 -8 14 4 12 2 20 -6 20 -8 0 -8 4 1 15 11 13 10 15 -6 14 -43 -4 -56
1 -49 18 4 10 9 58 11 106 l4 88 -30 -5 c-34 -5 -37 -1 -16 20 18 17 33 18 39
2 3 -8 6 -6 6 5 1 9 4 17 9 17 4 0 7 57 7 128 1 168 10 222 36 222 20 0 21 5
18 133 l-3 132 49 11 c84 18 130 43 156 83 31 50 131 118 175 120 7 1 13 -27
16 -73z m388 54 c0 -5 -5 -10 -11 -10 -5 0 -7 5 -4 10 3 6 8 10 11 10 2 0 4
-4 4 -10z m955 0 c-12 -5 -14 -9 -6 -9 8 -1 12 -4 8 -7 -3 -3 -16 1 -29 10
-22 16 -22 16 12 15 29 0 31 -2 15 -9z m1032 4 c-3 -3 -12 -4 -19 -1 -8 3 -5
6 6 6 11 1 17 -2 13 -5z m5598 -42 c-2 -3 -12 -1 -22 2 -15 6 -15 9 -3 16 13
8 35 -8 25 -18z m-6749 -1 c-5 -8 -56 -3 -56 5 0 2 14 4 31 4 16 0 28 -4 25
-9z m1089 0 c3 -5 1 -12 -5 -16 -5 -3 -10 1 -10 9 0 18 6 21 15 7z m-878 -17
c-3 -3 -12 -4 -19 -1 -8 3 -5 6 6 6 11 1 17 -2 13 -5z m2850 0 c-3 -3 -12 -4
-19 -1 -8 3 -5 6 6 6 11 1 17 -2 13 -5z m153 -4 c0 -5 -5 -10 -11 -10 -5 0 -7
5 -4 10 3 6 8 10 11 10 2 0 4 -4 4 -10z m-1000 -14 c0 -3 -4 -8 -10 -11 -5 -3
-10 -1 -10 4 0 6 5 11 10 11 6 0 10 -2 10 -4z m1035 -6 c3 -6 -1 -7 -9 -4 -18
7 -21 14 -7 14 6 0 13 -4 16 -10z m-3151 -13 c3 3 6 1 6 -5 0 -21 -17 -21 -36
0 -19 21 -19 21 2 10 12 -6 24 -8 28 -5z m2956 -1 c0 -2 -7 -7 -16 -10 -8 -3
-12 -2 -9 4 6 10 25 14 25 6z m-3036 -15 c9 -14 -5 -42 -17 -34 -6 3 -7 1 -3
-5 4 -6 13 -9 21 -5 8 3 15 0 15 -6 0 -6 -4 -11 -9 -11 -14 0 0 -41 15 -47 8
-3 14 -19 14 -36 0 -17 -3 -27 -7 -24 -3 4 -13 1 -21 -6 -13 -10 -14 -9 -10 3
3 8 -3 26 -14 39 -12 17 -15 27 -8 31 8 5 5 19 -9 44 -23 41 -26 50 -11 41 6
-3 7 1 4 9 -4 11 0 16 14 16 12 0 23 -4 26 -9z m-714 -33 c0 -5 -4 -8 -10 -8
-5 0 -10 10 -10 23 0 18 2 19 10 7 5 -8 10 -18 10 -22z m749 25 c-3 -21 3 -29
27 -31 17 -1 23 2 18 10 -4 7 -3 8 5 4 15 -9 5 -25 -22 -35 -15 -6 -25 -3 -34
8 -15 19 -17 51 -3 51 6 0 9 -3 9 -7z m1491 -3 c0 -5 -4 -10 -10 -10 -5 0 -10
5 -10 10 0 6 5 10 10 10 6 0 10 -4 10 -10z m-3357 -7 c-7 -2 -19 -2 -25 0 -7
3 -2 5 12 5 14 0 19 -2 13 -5z m3357 -23 c0 -5 -5 -10 -11 -10 -5 0 -7 5 -4
10 3 6 8 10 11 10 2 0 4 -4 4 -10z m1543 3 c-7 -2 -19 -2 -25 0 -7 3 -2 5 12
5 14 0 19 -2 13 -5z m-1548 -33 c3 -5 1 -10 -4 -10 -6 0 -11 5 -11 10 0 6 2
10 4 10 3 0 8 -4 11 -10z m1531 -8 c-10 -2 -22 0 -28 6 -6 6 0 7 19 4 21 -5
23 -7 9 -10z m-2846 -12 c0 -5 -7 -10 -15 -10 -8 0 -15 5 -15 10 0 6 7 10 15
10 8 0 15 -4 15 -10z m1315 -10 c3 -5 1 -10 -4 -10 -6 0 -11 5 -11 10 0 6 2
10 4 10 3 0 8 -4 11 -10z m-2235 -41 c0 -42 -16 -36 -18 6 -1 21 3 33 8 30 6
-3 10 -19 10 -36z m4890 27 c0 -12 -7 -12 -37 -4 -52 14 -53 18 -5 18 30 0 42
-4 42 -14z m-180 -16 c0 -5 -4 -10 -10 -10 -5 0 -10 5 -10 10 0 6 5 10 10 10
6 0 10 -4 10 -10z m206 -47 c-10 -10 -19 5 -10 18 6 11 8 11 12 0 2 -7 1 -15
-2 -18z m-1566 -8 c0 -8 -4 -15 -10 -15 -5 0 -10 7 -10 15 0 8 5 15 10 15 6 0
10 -7 10 -15z m1360 1 c0 -2 -9 -6 -20 -9 -11 -3 -20 -1 -20 4 0 5 9 9 20 9
11 0 20 -2 20 -4z m-923 -12 c-3 -3 -12 -4 -19 -1 -8 3 -5 6 6 6 11 1 17 -2
13 -5z m467 -43 c-6 -6 -24 19 -24 34 1 6 7 1 15 -9 8 -11 12 -22 9 -25z
m-1357 -3 c-3 -7 -5 -2 -5 12 0 14 2 19 5 13 2 -7 2 -19 0 -25z m856 5 c-7 -2
-19 -2 -25 0 -7 3 -2 5 12 5 14 0 19 -2 13 -5z m63 -11 c-16 -2 -32 0 -37 5
-5 5 7 7 29 4 34 -5 35 -6 8 -9z m-3036 -12 c0 -5 -5 -10 -11 -10 -5 0 -7 5
-4 10 3 6 8 10 11 10 2 0 4 -4 4 -10z m1597 -12 c-3 -8 -6 -5 -6 6 -1 11 2 17
5 13 3 -3 4 -12 1 -19z m30 0 c-3 -8 -6 -5 -6 6 -1 11 2 17 5 13 3 -3 4 -12 1
-19z m-107 4 c0 -10 -36 -9 -46 1 -4 4 5 7 19 7 15 0 27 -4 27 -8z m170 -12
c0 -5 -5 -10 -11 -10 -5 0 -7 5 -4 10 3 6 8 10 11 10 2 0 4 -4 4 -10z m-1847
-27 c-7 -2 -19 -2 -25 0 -7 3 -2 5 12 5 14 0 19 -2 13 -5z m3644 -9 c-3 -3
-12 -4 -19 -1 -8 3 -5 6 6 6 11 1 17 -2 13 -5z m3340 0 c-3 -3 -12 -4 -19 -1
-8 3 -5 6 6 6 11 1 17 -2 13 -5z m-6587 -14 c0 -5 -5 -10 -11 -10 -5 0 -7 5
-4 10 3 6 8 10 11 10 2 0 4 -4 4 -10z m2797 4 c-3 -3 -12 -4 -19 -1 -8 3 -5 6
6 6 11 1 17 -2 13 -5z m1419 -27 c8 -4 14 -17 14 -27 0 -11 5 -20 11 -20 5 0
8 -4 5 -8 -7 -12 31 -92 44 -92 7 0 8 -5 3 -12 -4 -7 -8 -33 -9 -58 0 -25 -2
-87 -2 -138 -1 -51 -6 -91 -11 -88 -4 3 -6 -11 -4 -30 2 -23 0 -33 -7 -29 -5
3 -10 15 -10 25 0 14 -5 18 -16 13 -9 -3 -12 -8 -5 -12 7 -5 7 -11 0 -21 -8
-11 -12 -12 -16 -2 -2 6 -11 12 -18 12 -7 0 -16 8 -18 18 -3 9 -5 -4 -6 -29
-1 -40 2 -47 21 -52 24 -7 41 3 21 10 -7 3 -13 9 -13 14 0 4 7 6 15 3 8 -4 15
-15 15 -25 0 -10 5 -19 10 -19 6 0 10 -6 10 -14 0 -9 -18 -15 -52 -20 -83 -9
-180 -7 -173 4 3 6 22 10 40 10 24 0 38 6 45 20 10 18 8 20 -29 20 -22 0 -41
-5 -43 -10 -1 -6 -1 101 0 237 3 190 7 252 17 263 8 8 13 17 13 20 0 12 26 60
33 60 5 0 6 -13 3 -30 -4 -18 -2 -30 4 -30 6 0 16 -2 24 -5 8 -3 23 11 38 35
14 22 27 35 29 28 2 -7 10 -17 17 -21z m-2969 -29 c-3 -8 -6 -5 -6 6 -1 11 2
17 5 13 3 -3 4 -12 1 -19z m1556 15 c-7 -2 -19 -2 -25 0 -7 3 -2 5 12 5 14 0
19 -2 13 -5z m-4 -39 c10 -9 -35 -3 -49 6 -11 8 -7 9 15 4 17 -4 32 -8 34 -10z
m3687 -30 c5 -19 9 -22 15 -12 5 8 8 -2 6 -27 l-2 -40 -40 3 c-22 2 -41 5 -42
5 0 1 -3 23 -6 50 l-5 47 34 0 c28 0 35 -4 40 -26z m-5209 -6 c-3 -8 -6 -5 -6
6 -1 11 2 17 5 13 3 -3 4 -12 1 -19z m-3700 -20 c-3 -7 -5 -2 -5 12 0 14 2 19
5 13 2 -7 2 -19 0 -25z m5156 25 c-7 -2 -19 -2 -25 0 -7 3 -2 5 12 5 14 0 19
-2 13 -5z m1767 -8 c0 -8 -2 -15 -4 -15 -2 0 -6 7 -10 15 -3 8 -1 15 4 15 6 0
10 -7 10 -15z m-1717 -2 c-7 -2 -19 -2 -25 0 -7 3 -2 5 12 5 14 0 19 -2 13 -5z
m-3943 -33 c0 -5 -2 -10 -4 -10 -3 0 -8 5 -11 10 -3 6 -1 10 4 10 6 0 11 -4
11 -10z m3717 -22 c-3 -7 -5 -2 -5 12 0 14 2 19 5 13 2 -7 2 -19 0 -25z m2007
26 c9 -3 16 -17 16 -31 0 -19 -4 -24 -16 -19 -37 14 -64 18 -64 8 0 -6 -10
-14 -22 -18 -32 -11 -42 -11 -50 1 -5 6 -11 6 -20 -3 -21 -21 -38 -14 -38 18
l0 30 78 -6 c68 -6 80 -4 85 10 7 18 9 19 31 10z m-6987 -26 c-3 -8 -6 -5 -6
6 -1 11 2 17 5 13 3 -3 4 -12 1 -19z m5206 15 c-7 -2 -19 -2 -25 0 -7 3 -2 5
12 5 14 0 19 -2 13 -5z m882 -11 c0 -18 -20 -15 -23 4 -3 10 1 15 10 12 7 -3
13 -10 13 -16z m-2308 -14 c-3 -8 -6 -5 -6 6 -1 11 2 17 5 13 3 -3 4 -12 1
-19z m4497 1 c-3 -5 -10 -7 -15 -3 -5 3 -7 10 -3 15 3 5 10 7 15 3 5 -3 7 -10
3 -15z m-3514 -49 c13 -47 56 -97 93 -106 21 -5 27 -3 27 11 0 12 5 15 16 11
9 -3 29 -6 45 -6 27 0 29 -2 29 -42 0 -48 6 -61 35 -73 19 -7 19 -8 -5 -14
-14 -4 -26 -12 -26 -19 -1 -7 -2 -16 -3 -22 0 -5 -8 -6 -18 -3 -11 4 -14 3 -9
-5 5 -8 1 -10 -10 -5 -11 4 -13 8 -6 11 26 8 10 20 -17 12 -19 -5 -31 -5 -33
1 -2 7 -12 7 -29 1 -27 -11 -51 1 -62 31 -3 9 -11 17 -17 17 -6 0 -9 -4 -6 -8
3 -5 -1 -9 -9 -9 -8 0 -16 7 -16 16 -1 9 -5 0 -9 -19 -4 -20 -7 30 -7 122 1
128 3 155 14 147 7 -6 17 -28 23 -49z m3985 50 c3 -5 1 -10 -4 -10 -6 0 -11 5
-11 10 0 6 2 10 4 10 3 0 8 -4 11 -10z m-3567 -7 c-10 -2 -26 -2 -35 0 -10 3
-2 5 17 5 19 0 27 -2 18 -5z m-1024 -24 c-8 -14 -24 -10 -24 6 0 9 6 12 15 9
8 -4 12 -10 9 -15z m1079 14 c-7 -2 -19 -2 -25 0 -7 3 -2 5 12 5 14 0 19 -2
13 -5z m-1563 -13 c0 -5 -8 -10 -17 -10 -15 0 -16 2 -3 10 19 12 20 12 20 0z
m27 -12 c-3 -8 -6 -5 -6 6 -1 11 2 17 5 13 3 -3 4 -12 1 -19z m5430 0 c-3 -8
-6 -5 -6 6 -1 11 2 17 5 13 3 -3 4 -12 1 -19z m-6599 -8 c7 -11 8 -20 3 -20
-5 0 -7 -9 -4 -20 3 -11 1 -20 -5 -20 -5 0 -9 14 -8 30 1 17 -1 30 -6 30 -12
0 -10 -68 2 -75 6 -3 10 -14 10 -23 0 -13 -3 -12 -16 6 -8 12 -19 22 -25 22
-5 0 -9 -46 -9 -105 l0 -105 25 10 c20 7 25 6 25 -5 0 -8 5 -15 11 -15 5 0 7
5 3 12 -4 7 -3 8 4 4 18 -11 14 -26 -5 -27 -17 -1 -17 -2 0 -6 9 -2 17 -8 17
-13 0 -5 -7 -7 -15 -4 -10 4 -15 0 -15 -11 0 -11 5 -15 14 -12 8 3 17 -1 20
-9 4 -11 10 -12 25 -4 11 5 46 9 78 8 l58 -1 -60 -6 c-60 -6 -153 -43 -147
-58 1 -4 -7 -10 -19 -11 -15 -3 -19 0 -14 10 5 7 5 10 0 6 -4 -4 -14 -3 -21 3
-10 9 -15 7 -20 -4 -3 -9 -12 -13 -20 -10 -10 4 -14 24 -14 79 0 48 -4 74 -11
74 -8 0 -8 4 1 15 14 17 4 58 -13 49 -7 -3 -4 1 6 9 24 20 21 30 -5 22 l-23
-6 23 20 c17 15 22 30 22 65 0 34 4 46 15 46 9 0 15 9 15 25 0 42 75 62 98 25z
m1227 10 c3 -5 1 -10 -4 -10 -6 0 -11 5 -11 10 0 6 2 10 4 10 3 0 8 -4 11 -10z
m5145 -6 c0 -2 -16 -4 -36 -4 -19 0 -33 4 -30 8 5 8 66 4 66 -4z m-7670 -4 c0
-5 -6 -10 -14 -10 -8 0 -18 5 -21 10 -3 6 3 10 14 10 12 0 21 -4 21 -10z m73
3 c-7 -2 -21 -2 -30 0 -10 3 -4 5 12 5 17 0 24 -2 18 -5z m1794 -15 c-3 -8 -6
-5 -6 6 -1 11 2 17 5 13 3 -3 4 -12 1 -19z m713 12 c0 -5 -2 -10 -4 -10 -3 0
-8 5 -11 10 -3 6 -1 10 4 10 6 0 11 -4 11 -10z m30 0 c0 -5 -5 -10 -11 -10 -5
0 -7 5 -4 10 3 6 8 10 11 10 2 0 4 -4 4 -10z m1365 1 l40 -9 -35 0 c-19 0 -46
4 -60 8 -20 6 -21 8 -5 8 11 1 38 -3 60 -7z m3395 -5 c21 -12 26 -12 36 3 12
15 13 14 20 -4 4 -11 12 -23 18 -27 17 -11 0 -20 -41 -20 -70 0 -70 0 -69 32
1 34 2 34 36 16z m-175 -6 c3 -5 -1 -10 -9 -10 -9 0 -16 5 -16 10 0 6 4 10 9
10 6 0 13 -4 16 -10z m-5677 -41 c1 -9 -4 -16 -12 -16 -9 0 -12 6 -8 16 5 14
3 14 -11 3 -8 -8 -13 -20 -10 -28 3 -8 0 -14 -7 -14 -7 0 -10 8 -7 20 3 11 1
20 -5 20 -5 0 -6 5 -3 11 10 15 59 6 63 -12z m922 11 c0 -5 -7 -7 -15 -4 -8 4
-15 8 -15 10 0 2 7 4 15 4 8 0 15 -4 15 -10z m1525 0 c27 -7 27 -8 5 -8 -14 0
-38 4 -55 8 -27 7 -27 8 -5 8 14 0 39 -4 55 -8z m3700 -10 c2 -4 -9 -7 -25 -8
-18 0 -30 4 -30 12 0 14 46 10 55 -4z m232 -2 c-3 -8 -6 -5 -6 6 -1 11 2 17 5
13 3 -3 4 -12 1 -19z m-3727 2 c0 -5 -4 -10 -10 -10 -5 0 -10 5 -10 10 0 6 5
10 10 10 6 0 10 -4 10 -10z m-5145 -10 c3 -5 22 -10 41 -10 21 0 33 -4 29 -10
-4 -6 -11 -8 -16 -5 -5 4 -12 -1 -15 -9 -3 -9 -12 -16 -19 -16 -7 0 -16 -6
-19 -12 -3 -7 -5 1 -3 19 3 30 2 31 -25 26 -23 -5 -27 -3 -22 11 7 18 39 22
49 6z m785 -22 c0 -12 -6 -9 -26 13 -19 22 -19 22 4 8 12 -8 22 -17 22 -21z
m220 12 c-8 -5 -17 -7 -19 -4 -3 3 1 9 9 14 8 5 17 7 19 4 3 -3 -1 -9 -9 -14z
m2550 10 c0 -5 -2 -10 -4 -10 -3 0 -8 5 -11 10 -3 6 -1 10 4 10 6 0 11 -4 11
-10z m1145 0 c3 -5 1 -10 -4 -10 -6 0 -11 5 -11 10 0 6 2 10 4 10 3 0 8 -4 11
-10z m-3858 -7 c-9 -2 -15 -9 -11 -14 3 -5 10 -7 15 -4 14 9 11 -11 -5 -24
-11 -9 -15 -6 -18 14 -6 28 -1 35 21 34 13 -1 12 -2 -2 -6z m4005 -20 c6 -54
-3 -94 -21 -91 -12 2 -17 17 -19 61 -3 51 -1 57 17 57 14 0 21 -8 23 -27z
m-3612 7 c0 -5 -2 -10 -4 -10 -3 0 -8 5 -11 10 -3 6 -1 10 4 10 6 0 11 -4 11
-10z m1115 0 c3 -5 1 -10 -4 -10 -6 0 -11 5 -11 10 0 6 2 10 4 10 3 0 8 -4 11
-10z m2575 0 c11 -7 5 -8 -20 -4 -43 8 -51 14 -19 14 13 0 31 -5 39 -10z
m-4003 -6 c-3 -3 -12 -4 -19 -1 -8 3 -5 6 6 6 11 1 17 -2 13 -5z m1620 -27
c-6 -39 0 -53 28 -60 18 -4 18 -5 -2 -6 -22 -1 -34 -21 -13 -21 6 0 10 -4 10
-10 0 -5 -7 -7 -15 -4 -11 5 -13 2 -9 -11 4 -10 14 -15 25 -12 11 3 17 1 14
-4 -10 -15 -53 -7 -47 9 4 11 1 12 -14 5 -10 -6 -25 -8 -33 -5 -9 3 -12 0 -9
-9 4 -10 -1 -15 -13 -15 -17 0 -19 9 -19 79 0 70 2 78 15 67 8 -7 15 -18 15
-25 0 -7 11 -12 25 -12 14 0 25 3 25 8 0 5 -8 9 -18 9 -19 0 -42 18 -42 33 0
5 11 7 24 5 14 -3 31 -1 38 3 20 13 21 11 15 -24z m6125 -11 c6 -10 8 -20 5
-23 -3 -2 -8 5 -12 16 -5 16 -15 21 -41 21 -22 0 -34 5 -34 14 0 11 6 12 36 1
20 -7 41 -20 46 -29z m205 12 c-3 -7 -5 -2 -5 12 0 14 2 19 5 13 2 -7 2 -19 0
-25z m-7810 16 c-3 -3 -12 -4 -19 -1 -8 3 -5 6 6 6 11 1 17 -2 13 -5z m1526
-6 c7 -23 -5 -48 -24 -48 -11 0 -19 5 -19 11 0 6 6 9 14 6 9 -4 12 2 10 19 -2
25 11 34 19 12z m-1653 -14 c0 -2 -9 -4 -20 -4 -11 0 -20 4 -20 9 0 5 9 7 20
4 11 -3 20 -7 20 -9z m3990 -4 c0 -5 -4 -10 -9 -10 -6 0 -13 5 -16 10 -3 6 1
10 9 10 9 0 16 -4 16 -10z m-3785 -22 c17 -3 15 -5 -7 -10 -24 -4 -28 -2 -28
16 0 13 3 16 8 10 4 -7 16 -14 27 -16z m3838 15 c-7 -2 -21 -2 -30 0 -10 3 -4
5 12 5 17 0 24 -2 18 -5z m-3033 -13 c-10 -7 10 -10 66 -10 72 0 82 -2 87 -19
2 -10 2 -23 -2 -29 -9 -15 -101 -8 -112 9 -7 11 -9 11 -9 1 0 -10 -8 -8 -28 6
-19 14 -33 18 -44 11 -13 -7 -15 -5 -13 8 2 10 4 21 4 26 1 4 16 7 34 7 24 0
28 -3 17 -10z m3270 -10 c-19 -12 -57 -13 -65 -1 -3 6 12 11 32 13 45 4 53 0
33 -12z m2960 10 c0 -5 -4 -10 -10 -10 -5 0 -10 5 -10 10 0 6 5 10 10 10 6 0
10 -4 10 -10z m417 -27 c-3 -10 -5 -4 -5 12 0 17 2 24 5 18 2 -7 2 -21 0 -30z
m-8512 18 c3 -5 1 -12 -5 -16 -5 -3 -10 1 -10 9 0 18 6 21 15 7z m4925 -1 c0
-5 -5 -10 -11 -10 -5 0 -7 5 -4 10 3 6 8 10 11 10 2 0 4 -4 4 -10z m94 -2 c-7
-11 -54 -10 -54 1 0 5 13 9 30 9 16 -1 27 -5 24 -10z m256 -14 c0 -10 -13 -14
-41 -14 -23 0 -38 4 -34 10 3 5 12 7 20 3 9 -3 15 1 15 10 0 10 7 13 20 10 11
-3 20 -12 20 -19z m-365 -5 c26 -10 27 -13 10 -17 -10 -2 -21 1 -23 7 -2 6 -8
11 -13 11 -6 0 -7 -4 -4 -10 12 -20 -42 -10 -61 11 l-19 22 40 -6 c22 -3 54
-11 70 -18z m3652 15 c-3 -3 -12 -4 -19 -1 -8 3 -5 6 6 6 11 1 17 -2 13 -5z
m-5027 -24 c0 -5 -2 -10 -4 -10 -3 0 -8 5 -11 10 -3 6 -1 10 4 10 6 0 11 -4
11 -10z m1262 -26 c-3 -15 -10 -23 -17 -20 -7 2 -18 -1 -24 -7 -8 -8 -11 -6
-11 9 0 13 10 24 28 31 15 6 28 11 28 12 1 1 -1 -11 -4 -25z m225 20 c-3 -3
-12 -4 -19 -1 -8 3 -5 6 6 6 11 1 17 -2 13 -5z m110 0 c-3 -3 -12 -4 -19 -1
-8 3 -5 6 6 6 11 1 17 -2 13 -5z m2778 -4 c3 -5 1 -10 -4 -10 -6 0 -11 5 -11
10 0 6 2 10 4 10 3 0 8 -4 11 -10z m-2739 -27 c-10 -10 -19 5 -10 18 6 11 8
11 12 0 2 -7 1 -15 -2 -18z m3394 12 c0 -2 -13 -5 -30 -7 -19 -3 -30 0 -30 7
0 7 11 10 30 7 17 -2 30 -5 30 -7z m227 -7 c-3 -8 -6 -5 -6 6 -1 11 2 17 5 13
3 -3 4 -12 1 -19z m-8740 6 c-3 -3 -12 -4 -19 -1 -8 3 -5 6 6 6 11 1 17 -2 13
-5z m5043 -4 c0 -5 -5 -10 -11 -10 -5 0 -7 5 -4 10 3 6 8 10 11 10 2 0 4 -4 4
-10z m-3360 -10 c0 -5 -5 -10 -11 -10 -5 0 -7 5 -4 10 3 6 8 10 11 10 2 0 4
-4 4 -10z m3240 -8 c14 -5 29 -10 35 -10 5 0 11 -5 13 -11 2 -6 -10 -11 -27
-11 -18 0 -31 5 -32 13 0 10 -2 10 -6 0 -2 -7 -11 -13 -18 -13 -7 0 -16 6 -18
13 -3 6 -6 -1 -7 -18 l-2 -30 -10 28 c-10 27 -28 37 -28 15 0 -6 -3 -8 -7 -5
-3 4 -11 0 -17 -8 -9 -11 -14 -8 -27 20 l-16 34 71 -4 c39 -2 82 -8 96 -13z
m-3037 -4 c-6 -7 -10 -41 -9 -76 1 -35 -2 -66 -6 -68 -4 -3 -8 6 -8 20 0 14
-4 26 -9 26 -17 0 -19 50 -2 60 14 8 13 9 -4 10 -19 1 -19 2 4 20 26 23 49 27
34 8z m3742 2 c7 -12 -12 -12 -40 0 -18 8 -17 9 7 9 15 1 30 -3 33 -9z m-3495
-8 c0 -14 -11 -21 -26 -15 -21 8 -17 23 6 23 11 0 20 -4 20 -8z m981 -30 c-6
-2 -9 -8 -6 -13 4 -5 -1 -6 -11 -2 -15 5 -15 7 0 15 9 5 17 17 17 26 1 13 2
13 6 -3 3 -10 0 -21 -6 -23z m-1511 24 c0 -3 -4 -8 -10 -11 -5 -3 -10 -1 -10
4 0 6 5 11 10 11 6 0 10 -2 10 -4z m6865 -6 c3 -5 1 -10 -4 -10 -6 0 -11 5
-11 10 0 6 2 10 4 10 3 0 8 -4 11 -10z m-6509 -22 c10 -13 12 -17 4 -10 -17
14 -34 16 -25 2 3 -5 1 -10 -4 -10 -13 0 -13 3 -5 24 8 20 7 20 30 -6z m-1586
2 c0 -5 -2 -10 -4 -10 -3 0 -8 5 -11 10 -3 6 -1 10 4 10 6 0 11 -4 11 -10z
m1163 -4 c19 -14 23 -36 7 -36 -5 0 -10 5 -10 12 0 6 -2 9 -5 6 -13 -13 8 -33
37 -35 36 -3 54 -16 44 -32 -8 -12 -57 -6 -87 10 -11 5 -19 6 -19 2 0 -4 -5 0
-11 10 -12 20 -3 41 13 31 7 -5 9 2 4 20 -7 29 0 32 27 12z m374 -8 c-3 -8 -6
-5 -6 6 -1 11 2 17 5 13 3 -3 4 -12 1 -19z m1133 8 c0 -9 -8 -12 -27 -8 l-28
6 25 7 c14 4 26 7 28 8 1 1 2 -5 2 -13z m350 -2 c0 -2 -9 -4 -20 -4 -11 0 -20
4 -20 9 0 5 9 7 20 4 11 -3 20 -7 20 -9z m-1770 -11 c0 -11 -3 -14 -8 -7 -4 6
-14 14 -22 17 -10 4 -8 6 8 6 15 1 22 -5 22 -16z m720 13 c0 -2 -7 -7 -16 -10
-8 -3 -12 -2 -9 4 6 10 25 14 25 6z m1110 -16 c0 -5 -2 -10 -4 -10 -3 0 -8 5
-11 10 -3 6 -1 10 4 10 6 0 11 -4 11 -10z m73 -7 c-7 -2 -19 -2 -25 0 -7 3 -2
5 12 5 14 0 19 -2 13 -5z m1210 -2 c4 -1 7 -9 7 -18 -1 -17 -1 -17 -11 -1 -5
10 -16 15 -24 12 -8 -4 -15 -2 -15 4 0 6 8 9 18 7 9 -2 20 -4 25 -4z m1497 5
c0 -3 -4 -8 -10 -11 -5 -3 -10 -1 -10 4 0 6 5 11 10 11 6 0 10 -2 10 -4z
m-5375 -21 c22 -8 32 -14 23 -15 -10 0 -18 -4 -18 -10 0 -15 26 -12 40 5 8 9
30 15 59 15 26 0 52 5 59 12 9 9 12 8 12 -5 0 -10 14 -20 40 -28 22 -7 40 -15
40 -19 0 -4 -44 -8 -97 -9 -113 -2 -123 -3 -142 -16 -10 -5 -16 -4 -19 3 -3 9
-26 10 -81 6 -62 -5 -79 -3 -89 9 -11 13 -3 19 60 40 40 14 73 26 73 26 0 0
18 -6 40 -14z m3935 5 c0 -5 6 -7 13 -5 6 3 24 2 39 -3 21 -5 25 -10 18 -22
-7 -11 -10 -11 -10 -2 0 9 -7 11 -21 7 -15 -5 -19 -4 -15 4 4 6 3 11 -2 11 -5
0 -14 -10 -21 -22 l-12 -23 5 23 c3 17 0 22 -17 22 -18 0 -19 2 -7 10 19 12
30 13 30 0z m-1623 -42 c-3 -7 -5 -2 -5 12 0 14 2 19 5 13 2 -7 2 -19 0 -25z
m1750 2 c-2 -33 -11 -39 -21 -12 -3 9 -9 23 -12 30 -3 7 2 12 15 12 16 0 20
-6 18 -30z m709 14 c-3 -9 -6 -21 -6 -27 0 -6 -6 -2 -14 9 -11 14 -11 21 -3
26 20 13 30 9 23 -8z m-3896 -15 c0 -5 -7 -9 -15 -9 -15 0 -20 12 -9 23 8 8
24 -1 24 -14z m1276 10 c4 -8 9 -7 15 2 7 11 13 10 30 -7 l21 -22 -23 -7 c-13
-4 -35 -18 -48 -31 -14 -14 -36 -24 -52 -24 -36 0 -38 23 -3 38 14 7 22 17 19
22 -3 6 2 10 12 11 10 0 13 3 6 6 -7 2 -13 9 -13 14 0 13 27 11 36 -2z m2039
-10 c7 -8 6 -13 -2 -16 -7 -3 -13 -14 -14 -26 0 -17 -3 -15 -12 10 -12 31 -31
58 -27 38 5 -23 -1 -55 -9 -55 -17 0 -41 31 -41 52 0 19 4 20 47 14 26 -3 52
-11 58 -17z m-5415 -10 c0 -5 -9 -9 -20 -9 -11 0 -20 6 -20 14 0 9 7 12 20 9
11 -3 20 -9 20 -14z m2778 14 c-16 -2 -40 -2 -55 0 -16 2 -3 4 27 4 30 0 43
-2 28 -4z m2702 -14 c0 -5 -4 -7 -10 -4 -5 3 -10 1 -10 -4 0 -16 -17 -13 -24
4 -4 11 1 15 19 15 14 0 25 -5 25 -11z m30 -5 c0 -8 -5 -12 -10 -9 -6 4 -8 11
-5 16 9 14 15 11 15 -7z m3040 -15 c11 -8 12 -12 3 -16 -15 -6 -17 -43 -3 -43
6 0 10 -18 10 -40 0 -41 -9 -47 -44 -34 -12 5 -16 21 -16 68 0 77 12 92 50 65z
m-6180 -19 c0 -11 -2 -20 -4 -20 -2 0 -6 9 -9 20 -3 11 -1 20 4 20 5 0 9 -9 9
-20z m2704 -5 c-4 -8 -8 -15 -10 -15 -2 0 -4 7 -4 15 0 8 4 15 10 15 5 0 7 -7
4 -15z m389 0 c-3 -9 -8 -14 -10 -11 -3 3 -2 9 2 15 9 16 15 13 8 -4z m-2917
-13 c-24 -5 -49 -29 -42 -40 2 -4 -4 -13 -15 -20 -16 -10 -19 -9 -19 3 0 25
-28 17 -52 -15 -28 -38 -36 -38 -30 0 5 35 23 47 67 45 19 -1 39 7 53 21 15
14 30 20 40 16 15 -6 15 -7 -2 -10z m2600 -11 c-1 -16 -4 -27 -8 -24 -11 6
-10 53 1 53 4 0 8 -13 7 -29z m2859 19 c3 -5 1 -10 -4 -10 -6 0 -11 5 -11 10
0 6 2 10 4 10 3 0 8 -4 11 -10z m-7245 -10 c0 -5 -7 -10 -16 -10 -8 0 -12 5
-9 10 3 6 10 10 16 10 5 0 9 -4 9 -10z m2017 4 c-3 -3 -12 -4 -19 -1 -8 3 -5
6 6 6 11 1 17 -2 13 -5z m2028 -10 c139 -22 135 -20 95 -55 -48 -40 -62 -43
-146 -28 l-74 13 0 36 c0 35 6 50 19 50 3 0 51 -7 106 -16z m420 6 c3 -5 1
-10 -4 -10 -6 0 -11 -10 -11 -22 0 -27 -5 -21 -14 15 -5 20 -3 27 8 27 8 0 18
-4 21 -10z m49 -5 c-4 -8 -10 -15 -15 -15 -5 0 -9 7 -9 15 0 8 7 15 15 15 9 0
12 -6 9 -15z m786 -2 c0 -7 -7 -10 -17 -6 -11 4 -14 3 -9 -5 4 -7 3 -12 -2
-12 -13 0 -33 25 -26 32 10 11 54 3 54 -9z m580 1 c0 -11 -207 -30 -218 -19
-11 10 4 14 88 20 47 4 87 9 88 10 9 8 42 0 42 -11z m-4604 -10 c17 -14 17
-15 1 -10 -10 3 -33 6 -50 7 -31 1 -31 1 -7 9 36 11 34 12 56 -6z m617 9 c-13
-2 -33 -2 -45 0 -13 2 -3 4 22 4 25 0 35 -2 23 -4z m-1406 -23 c-1 -21 -10
-18 -13 5 -1 8 2 15 6 15 5 0 8 -9 7 -20z m1129 -2 c3 -5 -6 -6 -23 -2 -40 9
-50 22 -13 16 17 -2 33 -8 36 -14z m3032 10 c20 -17 14 -28 -10 -19 -13 5 -39
13 -58 19 l-35 9 45 1 c25 0 51 -5 58 -10z m2777 2 c3 -5 1 -10 -4 -10 -6 0
-11 5 -11 10 0 6 2 10 4 10 3 0 8 -4 11 -10z m-8401 -49 c-9 -10 -26 18 -18
30 5 9 9 8 14 -7 4 -10 6 -21 4 -23z m3013 31 c12 -8 16 -24 14 -64 -1 -25 -5
-28 -33 -28 -29 1 -31 2 -16 13 13 11 15 21 8 50 -8 37 0 46 27 29z m2665 -22
c-5 -36 -7 -35 -16 3 -4 19 -3 27 7 27 9 0 12 -9 9 -30z m2858 20 c0 -5 -4
-10 -9 -10 -6 0 -13 5 -16 10 -3 6 1 10 9 10 9 0 16 -4 16 -10z m-7724 -27
c-10 -10 -19 5 -10 18 6 11 8 11 12 0 2 -7 1 -15 -2 -18z m21 5 c-3 -8 -6 -5
-6 6 -1 11 2 17 5 13 3 -3 4 -12 1 -19z m1433 12 c0 -5 -7 -10 -15 -10 -8 0
-15 5 -15 10 0 6 7 10 15 10 8 0 15 -4 15 -10z m320 -15 c0 -9 -8 -11 -27 -6
-38 10 -41 29 -3 23 16 -2 30 -10 30 -17z m4260 11 c0 -9 -27 -13 -97 -15 -54
-1 -101 -5 -105 -7 -4 -3 -8 -1 -8 4 0 5 39 14 88 18 48 5 95 10 105 11 9 1
17 -4 17 -11z m1158 8 c12 -4 22 -14 22 -23 0 -12 -2 -13 -9 -3 -4 8 -11 13
-15 13 -22 -3 -36 0 -36 9 0 11 6 12 38 4z m-2689 -13 c16 -10 6 -31 -15 -31
-8 0 -12 -4 -9 -10 3 -5 1 -10 -4 -10 -12 0 -14 20 -5 44 7 18 13 19 33 7z
m-2657 -8 c-6 -2 -9 -10 -6 -15 4 -7 2 -8 -5 -4 -13 9 -5 26 12 25 9 0 8 -2
-1 -6z m244 -15 c11 0 21 -6 21 -13 0 -8 -7 -13 -16 -13 -9 1 -26 -2 -38 -6
-24 -8 -33 8 -10 17 7 4 8 6 1 6 -6 1 -17 -6 -24 -14 -17 -21 -37 -19 -43 4
-6 22 11 29 58 23 17 -1 39 -3 51 -4z m2277 -39 c-4 -14 -11 -18 -24 -14 -14
5 -27 -3 -45 -25 -50 -59 -80 -60 -142 -5 -22 19 -24 19 -36 3 -7 -10 -16 -18
-20 -18 -3 0 -6 8 -7 18 0 14 -2 14 -9 -3 -8 -18 -9 -18 -9 5 0 14 2 35 5 47
5 18 10 20 35 13 16 -5 32 -9 34 -9 51 -1 125 -16 126 -25 1 -6 4 0 8 14 10
35 48 53 71 33 10 -9 15 -23 13 -34z m253 38 c3 -2 2 -17 -2 -32 l-7 -28 -18
34 c-10 19 -18 28 -19 22 0 -7 -7 -13 -15 -13 -8 0 -15 -6 -16 -12 0 -13 -17
19 -18 36 -1 9 86 3 95 -7z m-5429 -40 c1 -20 -2 -39 -7 -42 -6 -4 -10 5 -10
19 0 14 -4 27 -10 31 -12 8 0 37 14 32 6 -2 12 -20 13 -40z m83 28 c0 -9 -6
-12 -15 -9 -8 4 -15 10 -15 15 0 5 7 9 15 9 8 0 15 -7 15 -15z m870 5 c0 -6
-25 -10 -57 -11 -61 0 -114 -5 -150 -14 -23 -5 -53 3 -53 14 0 4 26 8 57 9 31
1 58 3 59 5 9 8 144 6 144 -3z m2020 -5 c0 -8 -4 -15 -10 -15 -5 0 -10 7 -10
15 0 8 5 15 10 15 6 0 10 -7 10 -15z m2518 -26 l-3 -24 -13 23 c-7 12 -10 27
-6 33 10 17 26 -6 22 -32z m619 30 c7 -7 8 -21 0 -45 -12 -38 -21 -42 -36 -16
-9 15 -12 15 -21 2 -9 -13 -11 -13 -20 0 -8 13 -11 12 -24 -5 -13 -17 -17 -18
-25 -6 -8 12 -12 13 -25 1 -18 -14 -18 -14 -33 14 -10 19 -11 18 -17 -2 -9
-26 -26 -29 -27 -4 0 9 -6 2 -13 -17 l-12 -35 -17 42 c-9 23 -17 44 -17 47 0
7 56 15 165 24 55 4 102 9 106 10 3 0 10 -4 16 -10z m-6211 -19 c0 -11 -4 -20
-8 -20 -4 0 -8 9 -8 20 0 11 4 20 8 20 4 0 8 -9 8 -20z m2798 5 c-4 -8 -8 -15
-10 -15 -2 0 -4 7 -4 15 0 8 4 15 10 15 5 0 7 -7 4 -15z m413 1 c-2 -6 -12
-10 -21 -10 -13 2 -14 -1 -5 -12 6 -8 20 -14 30 -14 20 0 26 -24 9 -35 -6 -4
-7 1 -3 12 4 13 3 15 -5 8 -7 -6 -13 -23 -14 -38 -3 -34 -11 -34 -28 -2 -7 14
-15 23 -18 20 -3 -2 0 -11 7 -18 9 -11 8 -17 -3 -26 -10 -8 -16 -9 -21 -1 -3
5 0 10 7 10 10 0 10 2 0 9 -8 4 -13 12 -13 17 0 5 -12 14 -28 19 -46 16 -50
27 -7 24 28 -3 41 0 43 11 3 8 6 20 8 26 2 6 17 11 34 11 18 0 30 -5 28 -11z
m3722 0 c-8 -9 -130 -13 -135 -5 -2 4 26 9 63 11 68 3 80 2 72 -6z m-6999 -12
c0 -8 -4 -12 -10 -9 -5 3 -10 10 -10 16 0 5 5 9 10 9 6 0 10 -7 10 -16z m898
-27 c24 -16 41 -32 37 -35 -3 -4 -9 -2 -13 3 -9 13 -42 34 -64 41 -9 3 -19 13
-22 21 -7 16 -2 14 62 -30z m2047 33 c3 -5 2 -10 -4 -10 -5 0 -13 5 -16 10 -3
6 -2 10 4 10 5 0 13 -4 16 -10z m399 -4 c-3 -8 -12 -12 -20 -9 -17 6 -9 23 11
23 8 0 12 -6 9 -14z m2390 2 c-7 -12 -44 -10 -44 2 0 5 11 9 24 8 14 -1 22 -6
20 -10z m36 -19 c0 -17 -4 -28 -10 -24 -5 3 -10 17 -10 31 0 13 5 24 10 24 6
0 10 -14 10 -31z m2531 5 c6 -8 18 -14 25 -14 8 0 14 -4 14 -10 0 -15 -26 -12
-40 5 -16 19 -36 19 -43 1 -7 -17 -68 -19 -79 -2 -18 26 -8 38 27 34 19 -2 35
-1 35 3 0 11 49 -2 61 -17z m-4901 12 c0 -11 -19 -15 -25 -6 -3 5 1 10 9 10 9
0 16 -2 16 -4z m58 -39 c3 -39 4 -38 -48 -27 -3 0 3 5 13 11 12 7 15 17 11 36
-5 19 -3 24 7 21 8 -2 15 -21 17 -41z m2352 28 c0 -12 -19 -12 -23 0 -4 9 -1
12 9 8 7 -3 14 -7 14 -8z m1040 11 c0 -2 -13 -6 -30 -8 -16 -3 -30 -1 -30 4 0
4 14 8 30 8 17 0 30 -2 30 -4z m-5905 -24 c-3 -3 -11 0 -18 7 -9 10 -8 11 6 5
10 -3 15 -9 12 -12z m133 0 c-4 -14 0 -18 16 -16 12 1 40 3 63 3 31 1 43 6 46
19 3 10 5 6 6 -10 0 -16 -3 -28 -9 -28 -5 0 -10 -9 -10 -20 0 -11 -5 -20 -11
-20 -11 0 -39 -25 -39 -35 0 -3 5 -3 10 0 6 3 10 1 10 -5 0 -7 -8 -9 -20 -5
-11 3 -38 6 -60 7 -22 0 -45 7 -51 14 -6 8 -8 14 -3 14 5 1 -4 7 -21 15 -19
10 -22 13 -8 9 18 -4 22 -2 17 10 -3 9 -15 16 -26 16 -11 0 -18 5 -15 13 2 7
19 11 44 9 29 -2 42 1 46 12 9 22 20 20 15 -2z m243 -26 c6 -6 9 -5 9 3 0 8 6
11 15 7 9 -3 15 0 15 9 0 18 16 20 26 4 4 -7 27 -10 60 -7 40 3 55 1 59 -10
10 -26 5 -52 -10 -52 -8 0 -15 -8 -15 -17 -1 -16 -2 -16 -15 1 -14 18 -20 15
-16 -7 1 -5 -4 -7 -11 -4 -7 2 -23 0 -35 -4 -30 -11 -53 -1 -53 22 0 10 -9 23
-19 29 -26 14 -31 13 -25 -5 4 -8 2 -15 -4 -15 -14 0 -26 54 -13 58 6 2 12 11
12 20 1 13 3 12 6 -3 3 -11 9 -24 14 -29z m1589 35 c0 -6 -5 -13 -10 -16 -15
-9 -43 3 -35 15 8 13 45 13 45 1z m2940 5 c0 -11 -19 -15 -25 -6 -3 5 1 10 9
10 9 0 16 -2 16 -4z m-5540 -13 c0 -5 -5 -15 -10 -23 -8 -12 -10 -11 -10 8 0
12 5 22 10 22 6 0 10 -3 10 -7z m60 -3 c0 -5 -4 -10 -10 -10 -5 0 -10 5 -10
10 0 6 5 10 10 10 6 0 10 -4 10 -10z m2750 2 c0 -4 -19 -8 -42 -9 -32 -1 -38
1 -23 7 26 11 65 12 65 2z m255 -2 c3 -6 -1 -7 -9 -4 -18 7 -21 14 -7 14 6 0
13 -4 16 -10z m2335 1 c0 -6 -4 -13 -10 -16 -5 -3 -10 1 -10 9 0 9 5 16 10 16
6 0 10 -4 10 -9z m-5707 -16 c-3 -9 -8 -14 -10 -11 -3 3 -2 9 2 15 9 16 15 13
8 -4z m117 11 c0 -2 -11 -6 -25 -8 -13 -3 -22 -1 -19 3 5 9 44 13 44 5z m130
-6 c0 -5 -4 -10 -10 -10 -5 0 -10 5 -10 10 0 6 5 10 10 10 6 0 10 -4 10 -10z
m6750 0 c0 -5 -5 -10 -11 -10 -5 0 -7 5 -4 10 3 6 8 10 11 10 2 0 4 -4 4 -10z
m-6170 -52 c0 -30 -20 -37 -39 -14 -15 17 -4 46 15 39 10 -4 13 0 8 13 -5 16
-4 16 5 4 6 -8 11 -27 11 -42z m4150 37 c0 -9 -9 -15 -25 -15 -16 0 -25 6 -25
15 0 9 9 15 25 15 16 0 25 -6 25 -15z m1987 9 c-3 -3 -12 -4 -19 -1 -8 3 -5 6
6 6 11 1 17 -2 13 -5z m813 -13 c0 -11 -90 -19 -96 -9 -5 7 25 14 69 17 15 0
27 -3 27 -8z m-7640 -10 c0 -6 -18 -9 -40 -9 -22 0 -37 4 -34 9 7 12 74 12 74
0z m140 -1 c0 -5 -9 -10 -20 -10 -11 0 -20 5 -20 10 0 6 9 10 20 10 11 0 20
-4 20 -10z m3777 -12 c-3 -8 -6 -5 -6 6 -1 11 2 17 5 13 3 -3 4 -12 1 -19z
m1452 13 c8 -5 11 -16 8 -25 -6 -14 -9 -15 -20 -4 -14 12 -19 38 -8 38 3 0 12
-4 20 -9z m86 -1 c19 -8 19 -9 -2 -9 -12 -1 -25 4 -28 9 -7 12 2 12 30 0z m59
-15 c-4 -8 -10 -12 -15 -9 -14 8 -10 24 6 24 9 0 12 -6 9 -15z m616 -9 c0 -13
-7 -29 -15 -36 -13 -11 -15 -7 -15 24 0 25 4 36 15 36 9 0 15 -9 15 -24z
m-1148 -6 c2 -8 0 -37 -3 -65 -3 -27 -7 -43 -7 -34 -1 8 -8 23 -15 32 -11 16
-12 14 -13 -13 -1 -16 2 -30 7 -30 5 0 9 -4 9 -10 0 -5 -8 -7 -17 -4 -15 5
-15 3 1 -10 18 -15 18 -16 2 -16 -9 0 -15 -4 -12 -9 5 -8 -15 -21 -31 -21 -3
0 -3 18 0 40 3 24 1 41 -7 45 -8 3 -8 7 2 11 6 3 12 12 12 20 0 8 5 14 10 14
6 0 10 12 10 26 0 14 -4 23 -10 19 -5 -3 -10 0 -10 7 0 19 68 17 72 -2z m678
-17 c0 -1 -7 0 -15 3 -9 4 -15 0 -16 -7 0 -8 -4 -5 -8 6 -12 29 -3 37 19 17
11 -9 20 -18 20 -19z m-5558 13 c5 -8 16 -7 37 1 l31 11 -6 -36 c-3 -21 -7
-38 -8 -40 -2 -1 -22 4 -45 13 -37 13 -43 13 -47 0 -4 -8 -15 -15 -25 -15 -10
0 -19 -4 -19 -10 0 -5 7 -6 17 -3 11 4 14 3 9 -5 -4 -7 -26 -11 -49 -11 -23 1
-34 3 -24 6 9 2 17 9 17 15 0 5 -7 8 -15 4 -8 -3 -15 -1 -15 4 0 6 7 10 15 10
18 0 20 16 3 23 -8 4 -7 6 4 6 9 1 18 -4 20 -11 3 -7 11 -9 24 -3 10 4 23 7
28 6 5 -1 6 6 2 14 -3 9 -4 20 -1 24 7 12 39 9 47 -3z m4641 -5 c-5 -19 -31
-36 -40 -27 -4 3 36 46 43 46 1 0 0 -9 -3 -19z m842 9 c-3 -5 -12 -7 -20 -3
-21 7 -19 13 6 13 11 0 18 -4 14 -10z m249 4 c9 -3 16 -14 16 -23 0 -12 -2
-13 -9 -3 -6 10 -10 4 -16 -20 l-7 -33 -8 35 c-11 46 -6 55 24 44z m1964 -50
l-3 -56 32 5 c18 3 35 1 38 -4 4 -5 -12 -9 -34 -9 -32 0 -39 -3 -35 -15 8 -20
-25 -32 -37 -14 -6 10 -9 10 -9 2 0 -17 -29 -17 -36 0 -3 8 -21 12 -47 11 -23
0 -80 7 -127 17 -47 10 -91 19 -99 19 -22 0 -4 -13 22 -17 63 -8 87 -15 82
-23 -3 -6 1 -7 10 -4 20 8 146 -17 139 -28 -3 -4 9 -6 26 -4 20 2 29 -1 27 -8
-2 -6 -12 -10 -21 -8 -9 2 -24 -2 -34 -8 -15 -10 -14 -11 6 -7 14 4 22 0 22
-9 0 -11 -10 -10 -50 6 -42 17 -50 17 -50 5 0 -26 -59 -19 -70 8 -7 18 -9 19
-9 4 -1 -14 -6 -17 -23 -11 -13 3 -29 11 -35 16 -9 7 -13 6 -14 -3 0 -9 -2
-10 -5 -3 -3 7 -14 10 -24 7 -18 -5 -20 0 -20 51 l0 56 49 0 c30 0 51 -5 54
-12 3 -7 6 -4 6 7 1 12 4 16 9 9 4 -6 48 -19 99 -29 76 -15 94 -16 107 -6 13
11 16 11 16 -2 0 -9 5 -19 10 -22 6 -4 9 13 8 46 -2 40 -6 53 -20 57 -10 2
-18 9 -18 14 0 6 7 8 15 5 8 -4 17 -2 20 3 16 26 27 6 23 -46z m-7388 -4 c0
-44 -2 -50 -21 -50 -18 0 -19 3 -9 15 7 8 10 31 8 50 -3 24 0 35 9 35 9 0 13
-16 13 -50z m2120 40 c0 -5 -5 -10 -11 -10 -5 0 -7 5 -4 10 3 6 8 10 11 10 2
0 4 -4 4 -10z m3184 2 c2 -4 -2 -18 -10 -32 -9 -18 -13 -20 -14 -8 0 9 -3 23
-6 32 -6 16 20 24 30 8z m1376 -7 c0 -8 -8 -15 -17 -14 -11 0 -13 3 -5 6 6 2
10 9 6 14 -3 5 0 9 5 9 6 0 11 -7 11 -15z m518 5 c6 0 12 -4 12 -10 0 -5 -12
-10 -26 -10 -14 0 -23 4 -19 10 3 6 2 10 -4 10 -5 0 -13 -4 -16 -10 -3 -5 -18
-10 -33 -10 -20 0 -23 3 -12 9 8 6 17 8 21 5 4 -2 11 1 14 7 4 6 17 8 29 5 11
-3 27 -6 34 -6z m232 -2 c0 -4 -4 -8 -9 -8 -6 0 -12 4 -15 8 -3 5 1 9 9 9 8 0
15 -4 15 -9z m-6640 -14 c0 -8 -4 -12 -10 -9 -5 3 -10 10 -10 16 0 5 5 9 10 9
6 0 10 -7 10 -16z m1297 10 c-3 -3 -12 -4 -19 -1 -8 3 -5 6 6 6 11 1 17 -2 13
-5z m1116 -41 c-3 -7 -9 -13 -15 -13 -5 0 -6 -5 -2 -12 4 -7 3 -8 -5 -4 -9 6
-9 11 0 22 6 7 9 20 6 28 -3 8 -3 17 1 21 8 8 21 -26 15 -42z m-2069 5 c4 -20
3 -28 -7 -28 -9 0 -12 9 -9 30 5 36 7 35 16 -2z m5436 22 c13 -9 13 -10 0 -9
-8 0 -24 4 -35 9 l-20 9 20 0 c11 0 27 -4 35 -9z m-6623 -6 c-3 -3 -12 -4 -19
-1 -8 3 -5 6 6 6 11 1 17 -2 13 -5z m4333 -3 c0 -6 -4 -12 -8 -15 -5 -3 -9 1
-9 9 0 8 4 15 9 15 4 0 8 -4 8 -9z m-646 -11 c14 -5 26 -14 26 -20 0 -6 -12
-4 -30 5 -44 23 -42 33 4 15z m1271 1 c3 -5 1 -12 -5 -16 -5 -3 -10 1 -10 9 0
18 6 21 15 7z m1400 -55 c-14 -87 -25 -93 -25 -13 0 60 5 73 30 76 4 1 1 -28
-5 -63z m312 58 c-3 -3 -12 -4 -19 -1 -8 3 -5 6 6 6 11 1 17 -2 13 -5z m1128
-4 c3 -6 -1 -7 -9 -4 -18 7 -21 14 -7 14 6 0 13 -4 16 -10z m-2762 -7 c-7 -2
-19 -2 -25 0 -7 3 -2 5 12 5 14 0 19 -2 13 -5z m67 -3 c12 -8 11 -10 -7 -10
-13 0 -23 5 -23 10 0 13 11 13 30 0z m-4363 -6 c-3 -3 -12 -4 -19 -1 -8 3 -5
6 6 6 11 1 17 -2 13 -5z m1283 -36 c0 -17 -3 -29 -6 -25 -9 9 -11 66 -2 61 4
-3 8 -19 8 -36z m3150 33 c0 -6 -4 -12 -10 -16 -5 -3 -6 -13 -3 -23 8 -21 2
-16 -20 21 -17 27 -17 27 8 27 14 0 25 -4 25 -9z m2555 -1 c3 -5 1 -10 -4 -10
-6 0 -11 5 -11 10 0 6 2 10 4 10 3 0 8 -4 11 -10z m152 4 c-3 -3 -12 -4 -19
-1 -8 3 -5 6 6 6 11 1 17 -2 13 -5z m-2582 -24 c15 -6 31 -8 36 -5 5 4 16 2
26 -3 15 -9 14 -10 -4 -16 -11 -4 -28 -4 -37 0 -10 4 -16 1 -16 -7 -1 -8 -7
-3 -15 11 -7 14 -16 24 -19 23 -16 -7 -76 -2 -76 7 0 11 65 5 105 -10z m2358
6 c41 -6 25 -16 -26 -16 -31 0 -57 4 -57 9 0 13 21 20 46 14 11 -2 28 -5 37
-7z m127 4 c0 -13 -11 -13 -30 0 -12 8 -11 10 8 10 12 0 22 -4 22 -10z m248
-2 c6 -1 12 -10 12 -20 0 -17 9 -22 28 -15 4 1 6 5 5 10 -4 9 27 8 52 -3 18
-8 17 -9 -7 -9 -16 -1 -28 -7 -28 -13 0 -7 -5 -20 -10 -28 -8 -13 -12 -12 -25
7 -11 16 -22 20 -38 16 -12 -4 -62 -7 -112 -8 -49 -1 -71 0 -47 2 23 2 42 7
42 12 0 4 15 5 34 3 67 -8 60 5 -9 17 -81 14 -126 36 -58 28 24 -3 46 -1 49 5
4 6 25 8 53 4 25 -4 52 -7 59 -8z m-8028 -7 c0 -6 -4 -13 -10 -16 -5 -3 -10 1
-10 9 0 9 5 16 10 16 6 0 10 -4 10 -9z m897 3 c-3 -3 -12 -4 -19 -1 -8 3 -5 6
6 6 11 1 17 -2 13 -5z m2829 -3 c-3 -5 1 -12 10 -15 10 -4 13 -2 8 7 -6 8 -3
8 9 -1 9 -8 21 -11 26 -8 5 4 9 -2 8 -13 0 -11 -5 -17 -9 -15 -16 10 -48 13
-43 4 3 -5 -8 -8 -25 -8 -17 1 -27 4 -22 7 5 3 14 16 21 29 6 12 14 22 17 22
3 0 3 -4 0 -9z m604 -11 c0 -5 -5 -10 -11 -10 -5 0 -7 5 -4 10 3 6 8 10 11 10
2 0 4 -4 4 -10z m-4071 -34 c-11 -9 -69 -14 -69 -6 0 6 17 10 37 10 20 0 34
-2 32 -4z m1699 -21 c-3 -3 -9 2 -12 12 -6 14 -5 15 5 6 7 -7 10 -15 7 -18z
m802 10 c0 -8 -7 -15 -15 -15 -13 0 -14 3 -3 15 16 18 18 18 18 0z m991 -8
c-10 -9 -11 -8 -5 6 3 10 9 15 12 12 3 -3 0 -11 -7 -18z m3794 12 c10 0 24 -3
30 -7 5 -5 26 -9 45 -11 19 -2 37 -7 38 -12 2 -5 18 -9 37 -9 18 0 38 -7 45
-15 10 -12 5 -14 -36 -11 -85 7 -134 18 -127 29 3 6 1 7 -6 3 -19 -12 -118 14
-118 31 0 12 8 14 36 8 20 -4 45 -7 56 -6z m-7900 -9 c3 -5 1 -10 -4 -10 -6 0
-11 5 -11 10 0 6 2 10 4 10 3 0 8 -4 11 -10z m815 0 c0 -5 -11 -10 -25 -10
-14 0 -25 5 -25 10 0 6 11 10 25 10 14 0 25 -4 25 -10z m1543 3 c-7 -2 -19 -2
-25 0 -7 3 -2 5 12 5 14 0 19 -2 13 -5z m1588 -1 c-6 -2 -11 -8 -11 -13 0 -6
5 -7 10 -4 6 3 10 1 10 -4 0 -14 -6 -14 -39 4 -16 8 -31 11 -35 8 -3 -4 -6 -1
-6 5 0 6 17 10 41 9 23 -1 36 -3 30 -5z m-1658 -9 c-7 -2 -19 -2 -25 0 -7 3
-2 5 12 5 14 0 19 -2 13 -5z m1767 -3 c0 -5 -4 -10 -10 -10 -5 0 -10 5 -10 10
0 6 5 10 10 10 6 0 10 -4 10 -10z m1400 0 c0 -5 -4 -10 -9 -10 -6 0 -13 5 -16
10 -3 6 1 10 9 10 9 0 16 -4 16 -10z m2678 3 c-16 -2 -40 -2 -55 0 -16 2 -3 4
27 4 30 0 43 -2 28 -4z m-7233 -13 c4 -6 -7 -10 -25 -10 -18 0 -29 4 -25 10 3
6 15 10 25 10 10 0 22 -4 25 -10z m355 6 c0 -3 -4 -8 -10 -11 -5 -3 -10 -1
-10 4 0 6 5 11 10 11 6 0 10 -2 10 -4z m4263 -3 c-7 -2 -19 -2 -25 0 -7 3 -2
5 12 5 14 0 19 -2 13 -5z m52 -3 c3 -5 -1 -10 -9 -10 -9 0 -16 5 -16 10 0 6 4
10 9 10 6 0 13 -4 16 -10z m-5582 -7 c-7 -2 -19 -2 -25 0 -7 3 -2 5 12 5 14 0
19 -2 13 -5z m1870 1 c12 -4 12 -10 3 -30 -13 -28 -21 -30 -30 -8 -3 8 -14 14
-23 13 -10 0 -29 -1 -43 0 -25 2 -25 2 5 16 33 15 65 18 88 9z m2217 -19 c5 3
6 -4 3 -15 -7 -27 -23 -36 -24 -13 0 10 -3 13 -6 6 -7 -20 -23 -15 -16 5 6 15
5 16 -12 2 -15 -12 -17 -12 -10 -1 6 11 4 13 -9 8 -10 -4 -15 -3 -11 3 3 6 2
10 -4 10 -5 0 -12 -6 -14 -12 -3 -7 -6 -4 -6 8 -1 20 1 21 50 8 29 -8 55 -11
59 -9z m3720 18 c0 -5 -5 -15 -10 -23 -7 -11 -10 -11 -10 -2 0 7 -5 10 -10 7
-6 -4 -8 -10 -5 -15 3 -4 -5 -6 -17 -2 -16 4 -18 7 -8 10 8 3 21 11 28 19 15
14 32 17 32 6z m1625 -21 c1 -13 -2 -25 -7 -28 -4 -3 -8 0 -8 7 0 7 -3 9 -6 6
-4 -3 -15 -2 -25 4 -15 7 -21 6 -25 -6 -8 -21 -24 -9 -24 20 0 21 4 23 47 21
41 -1 47 -4 48 -24z m-4440 8 c-3 -5 -17 -10 -31 -10 -13 0 -24 5 -24 10 0 6
14 10 31 10 17 0 28 -4 24 -10z m75 -15 c-14 -16 -60 -21 -60 -6 0 6 15 12 33
14 17 2 34 5 36 5 2 1 -2 -5 -9 -13z m1650 6 c0 -6 -4 -13 -10 -16 -5 -3 -10
1 -10 9 0 9 5 16 10 16 6 0 10 -4 10 -9z m1120 -4 c-27 -15 -36 -14 -25 2 3 6
16 11 28 11 21 0 21 -1 -3 -13z m45 3 c3 -5 1 -10 -4 -10 -6 0 -11 5 -11 10 0
6 2 10 4 10 3 0 8 -4 11 -10z m-6635 -5 c0 -2 -10 -9 -22 -15 -22 -11 -22 -10
-4 4 21 17 26 19 26 11z m6689 -4 c10 -7 7 -9 -12 -8 -14 1 -23 5 -20 10 6 9
15 9 32 -2z m1571 5 c0 -3 -4 -8 -10 -11 -5 -3 -10 -1 -10 4 0 6 5 11 10 11 6
0 10 -2 10 -4z m-5603 -28 c-3 -8 -6 -5 -6 6 -1 11 2 17 5 13 3 -3 4 -12 1
-19z m563 12 c0 -5 -4 -10 -10 -10 -5 0 -10 5 -10 10 0 6 5 10 10 10 6 0 10
-4 10 -10z m-3351 -4 c-12 -10 -59 -15 -59 -6 0 5 14 10 32 10 17 0 29 -2 27
-4z"/>
<path d="M4100 2000 c0 -5 5 -10 10 -10 6 0 10 5 10 10 0 6 -4 10 -10 10 -5 0
-10 -4 -10 -10z"/>
<path d="M3610 1709 c0 -5 5 -7 10 -4 6 3 10 8 10 11 0 2 -4 4 -10 4 -5 0 -10
-5 -10 -11z"/>
<path d="M3560 539 c0 -5 5 -7 10 -4 6 3 10 8 10 11 0 2 -4 4 -10 4 -5 0 -10
-5 -10 -11z"/>
<path d="M7660 766 c0 -2 7 -7 16 -10 8 -3 12 -2 9 4 -6 10 -25 14 -25 6z"/>
<path d="M7468 693 c7 -3 16 -2 19 1 4 3 -2 6 -13 5 -11 0 -14 -3 -6 -6z"/>
<path d="M7603 673 c9 -2 25 -2 35 0 9 3 1 5 -18 5 -19 0 -27 -2 -17 -5z"/>
<path d="M7725 660 c-3 -6 1 -7 9 -4 18 7 21 14 7 14 -6 0 -13 -4 -16 -10z"/>
<path d="M7881 637 c10 -9 59 -17 59 -9 0 4 -14 9 -32 10 -18 2 -30 1 -27 -1z"/>
<path d="M7955 631 c-3 -6 4 -9 15 -8 11 1 20 5 20 9 0 11 -28 10 -35 -1z"/>
<path d="M7776 598 c3 -5 10 -6 15 -3 13 9 11 12 -6 12 -8 0 -12 -4 -9 -9z"/>
<path d="M7505 592 c14 -13 91 -24 78 -11 -6 6 -28 12 -49 15 -24 3 -35 1 -29
-4z"/>
<path d="M7930 584 c0 -8 5 -12 10 -9 6 4 8 11 5 16 -9 14 -15 11 -15 -7z"/>
<path d="M8045 590 c3 -5 10 -10 16 -10 5 0 9 5 9 10 0 6 -7 10 -16 10 -8 0
-12 -4 -9 -10z"/>
<path d="M7605 580 c-3 -5 -1 -10 4 -10 6 0 11 5 11 10 0 6 -2 10 -4 10 -3 0
-8 -4 -11 -10z"/>
<path d="M7670 570 c0 -5 7 -10 16 -10 8 0 12 5 9 10 -3 6 -10 10 -16 10 -5 0
-9 -4 -9 -10z"/>
<path d="M8258 553 c7 -3 16 -2 19 1 4 3 -2 6 -13 5 -11 0 -14 -3 -6 -6z"/>
<path d="M7850 541 c0 -6 9 -9 20 -8 11 1 20 5 20 9 0 4 -9 8 -20 8 -11 0 -20
-4 -20 -9z"/>
<path d="M7908 532 c12 -8 72 -4 72 4 0 2 -19 4 -42 4 -26 0 -38 -4 -30 -8z"/>
<path d="M7668 523 c7 -3 16 -2 19 1 4 3 -2 6 -13 5 -11 0 -14 -3 -6 -6z"/>
<path d="M8200 521 c0 -11 59 -20 65 -11 3 4 2 10 -2 14 -10 9 -63 7 -63 -3z"/>
<path d="M8290 510 c0 -5 5 -10 11 -10 5 0 7 5 4 10 -3 6 -8 10 -11 10 -2 0
-4 -4 -4 -10z"/>
<path d="M7431 494 c0 -11 3 -14 6 -6 3 7 2 16 -1 19 -3 4 -6 -2 -5 -13z"/>
<path d="M7460 498 c0 -4 9 -8 20 -8 11 0 20 4 20 8 0 4 -9 8 -20 8 -11 0 -20
-4 -20 -8z"/>
<path d="M7765 500 c4 -6 11 -8 16 -5 14 9 11 15 -7 15 -8 0 -12 -5 -9 -10z"/>
<path d="M7850 496 c0 -2 7 -7 16 -10 8 -3 12 -2 9 4 -6 10 -25 14 -25 6z"/>
<path d="M8010 488 c0 -4 -6 -6 -12 -4 -7 1 -10 1 -5 -1 4 -3 7 -9 7 -15 0
-18 28 -38 54 -38 17 0 24 4 20 13 -2 7 -16 13 -31 12 -14 0 -28 6 -30 13 -3
8 6 12 26 12 17 0 31 3 31 8 0 4 -13 7 -30 7 -16 0 -30 -3 -30 -7z"/>
<path d="M8224 493 c15 -4 16 -7 5 -15 -11 -8 -10 -9 4 -4 9 3 17 1 17 -4 0
-6 5 -10 12 -10 6 0 3 9 -7 20 -10 11 -25 19 -34 19 -12 -1 -11 -3 3 -6z"/>
<path d="M7915 480 c3 -5 10 -10 16 -10 5 0 9 5 9 10 0 6 -7 10 -16 10 -8 0
-12 -4 -9 -10z"/>
<path d="M7490 385 c0 -7 8 -19 18 -25 14 -9 13 -10 -10 -6 -16 4 -30 1 -34
-6 -5 -8 -2 -9 9 -5 10 3 17 2 17 -3 0 -16 57 -12 63 4 4 10 1 13 -9 9 -7 -3
-14 0 -14 6 0 6 7 11 15 11 23 0 18 17 -7 24 -36 9 -48 7 -48 -9z"/>
<path d="M8021 383 c0 -10 3 -13 5 -7 3 6 16 9 29 6 15 -2 25 0 25 7 0 6 -13
11 -30 11 -22 0 -30 -5 -29 -17z"/>
<path d="M7744 377 c3 -10 6 -21 6 -23 0 -2 9 -4 20 -4 12 0 20 7 20 16 0 10
-6 14 -14 11 -7 -3 -19 0 -26 6 -10 10 -12 8 -6 -6z"/>
<path d="M7910 375 c0 -11 7 -15 23 -13 12 2 22 8 22 13 0 6 -10 11 -22 13
-16 2 -23 -2 -23 -13z"/>
<path d="M7430 362 c0 -12 4 -22 9 -22 10 0 9 26 -2 36 -4 4 -7 -2 -7 -14z"/>
<path d="M7570 370 c0 -5 5 -10 10 -10 6 0 10 5 10 10 0 6 -4 10 -10 10 -5 0
-10 -4 -10 -10z"/>
<path d="M7840 371 c0 -6 5 -13 10 -16 6 -3 10 1 10 9 0 9 -4 16 -10 16 -5 0
-10 -4 -10 -9z"/>
<path d="M8029 344 c-7 -8 -9 -17 -5 -21 3 -3 6 -2 6 4 0 6 8 10 18 9 22 -1
32 16 10 20 -9 1 -22 -4 -29 -12z"/>
<path d="M7583 324 c9 -3 17 -10 17 -15 0 -5 14 -9 32 -9 43 0 24 17 -27 24
-22 3 -32 3 -22 0z"/>
<path d="M7383 270 c1 -11 5 -20 9 -20 11 0 10 28 -1 35 -6 3 -9 -4 -8 -15z"/>
<path d="M7420 231 c0 -6 5 -13 10 -16 6 -3 10 1 10 9 0 9 -4 16 -10 16 -5 0
-10 -4 -10 -9z"/>
<path d="M1310 680 c8 -5 20 -10 25 -10 6 0 3 5 -5 10 -8 5 -19 10 -25 10 -5
0 -3 -5 5 -10z"/>
<path d="M1020 530 c-32 -7 -33 -7 -7 -9 16 0 26 -5 22 -11 -3 -5 -2 -10 2
-10 5 0 14 9 21 20 7 11 9 19 5 19 -5 -1 -24 -5 -43 -9z"/>
<path d="M950 515 c0 -11 10 -15 33 -14 23 1 26 3 10 6 -13 2 -23 9 -23 14 0
5 -4 9 -10 9 -5 0 -10 -7 -10 -15z"/>
<path d="M906 498 c3 -4 11 -5 19 -1 21 7 19 12 -4 10 -11 0 -18 -5 -15 -9z"/>
<path d="M2537 1323 c-3 -3 1 -12 9 -20 8 -9 18 -13 21 -10 3 3 -1 13 -10 21
-8 8 -17 12 -20 9z"/>
<path d="M7080 690 c0 -5 5 -10 11 -10 5 0 7 5 4 10 -3 6 -8 10 -11 10 -2 0
-4 -4 -4 -10z"/>
<path d="M6938 683 c7 -3 16 -2 19 1 4 3 -2 6 -13 5 -11 0 -14 -3 -6 -6z"/>
<path d="M7091 654 c0 -11 3 -14 6 -6 3 7 2 16 -1 19 -3 4 -6 -2 -5 -13z"/>
<path d="M6931 650 c-2 -8 -5 -32 -6 -52 -3 -34 -1 -38 18 -38 18 0 19 2 7 11
-11 8 -12 12 -2 16 6 2 12 12 12 21 0 14 -2 15 -9 3 -7 -11 -11 -6 -14 20 -2
19 -5 27 -6 19z"/>
<path d="M7020 648 c0 -4 9 -8 20 -8 11 0 20 4 20 8 0 4 -9 8 -20 8 -11 0 -20
-4 -20 -8z"/>
<path d="M7045 620 c-3 -5 -1 -10 4 -10 6 0 11 5 11 10 0 6 -2 10 -4 10 -3 0
-8 -4 -11 -10z"/>
<path d="M6970 578 c0 -20 5 -28 18 -28 23 0 25 30 3 31 -10 0 -12 2 -3 6 17
7 15 20 -3 20 -10 0 -15 -10 -15 -29z"/>
<path d="M2873 787 c3 -10 3 -17 -1 -17 -4 0 -8 -29 -9 -65 -1 -51 2 -65 13
-65 18 0 21 145 2 156 -8 5 -9 2 -5 -9z"/>
<path d="M2860 600 c0 -5 7 -10 15 -10 8 0 15 5 15 10 0 6 -7 10 -15 10 -8 0
-15 -4 -15 -10z"/>
<path d="M2866 563 c-11 -11 -6 -23 8 -23 8 0 17 4 20 9 7 10 -19 23 -28 14z"/>
<path d="M2862 508 c5 -15 28 -18 29 -3 0 6 -7 12 -17 13 -10 3 -15 -1 -12
-10z"/>
<path d="M2945 511 c-6 -11 9 -23 19 -14 9 9 7 23 -3 23 -6 0 -12 -4 -16 -9z"/>
<path d="M690 790 c0 -5 5 -10 11 -10 5 0 7 5 4 10 -3 6 -8 10 -11 10 -2 0 -4
-4 -4 -10z"/>
<path d="M3160 709 c0 -5 -5 -7 -11 -3 -7 4 -6 -2 1 -17 10 -17 10 -24 1 -27
-6 -2 -11 -9 -11 -15 0 -8 4 -7 12 1 7 7 22 12 33 12 14 0 26 10 33 26 7 14 8
23 2 19 -5 -3 -10 -1 -10 4 0 6 -11 11 -25 11 -14 0 -25 -5 -25 -11z m50 -19
c0 -4 -11 -7 -24 -7 -19 0 -22 2 -13 12 12 13 37 9 37 -5z"/>
<path d="M2726 697 c3 -10 9 -15 12 -12 3 3 0 11 -7 18 -10 9 -11 8 -5 -6z"/>
<path d="M5791 514 c0 -11 3 -14 6 -6 3 7 2 16 -1 19 -3 4 -6 -2 -5 -13z"/>
<path d="M8268 323 c7 -3 16 -2 19 1 4 3 -2 6 -13 5 -11 0 -14 -3 -6 -6z"/>
<path d="M1450 290 c0 -13 28 -25 38 -16 3 4 0 11 -8 16 -20 13 -30 12 -30 0z"/>
<path d="M7850 80 c8 -5 22 -9 30 -9 10 0 8 3 -5 9 -27 12 -43 12 -25 0z"/>
<path d="M4295 2470 c-3 -5 -1 -10 4 -10 6 0 11 5 11 10 0 6 -2 10 -4 10 -3 0
-8 -4 -11 -10z"/>
<path d="M4258 2463 c7 -3 16 -2 19 1 4 3 -2 6 -13 5 -11 0 -14 -3 -6 -6z"/>
<path d="M5517 2293 c-4 -3 -7 -56 -7 -116 l0 -110 110 114 c60 63 110 115
110 117 0 5 -207 1 -213 -5z"/>
<path d="M4926 2195 c-3 -8 -1 -15 4 -15 6 0 10 7 10 15 0 8 -2 15 -4 15 -2 0
-6 -7 -10 -15z"/>
<path d="M1842 2075 c4 -4 3 -14 -3 -22 -7 -8 -8 -13 -1 -13 15 0 23 28 9 36
-7 4 -9 4 -5 -1z"/>
<path d="M1875 2060 c3 -5 8 -10 11 -10 2 0 4 5 4 10 0 6 -5 10 -11 10 -5 0
-7 -4 -4 -10z"/>
<path d="M9206 2023 c-6 -14 -5 -15 5 -6 7 7 10 15 7 18 -3 3 -9 -2 -12 -12z"/>
<path d="M1827 1888 c-17 -11 44 -8 68 2 15 7 11 8 -18 7 -21 -1 -44 -5 -50
-9z"/>
<path d="M401 1311 c-11 -19 -11 -28 0 -50 l13 -26 4 28 c2 15 2 37 0 50 l-3
22 -14 -24z"/>
<path d="M377 903 c-14 -13 -6 -23 18 -23 16 0 25 6 25 15 0 15 -31 21 -43 8z"/>
<path d="M430 895 c0 -11 11 -15 40 -15 29 0 40 4 40 15 0 11 -11 15 -40 15
-29 0 -40 -4 -40 -15z"/>
<path d="M377 864 c-10 -11 3 -24 24 -24 10 0 19 7 19 15 0 15 -31 21 -43 9z"/>
<path d="M430 855 c0 -11 8 -14 33 -11 17 3 35 5 40 5 4 1 7 6 7 11 0 6 -18
10 -40 10 -29 0 -40 -4 -40 -15z"/>
<path d="M463 832 c-29 -3 -33 -7 -33 -33 0 -29 2 -30 38 -27 45 4 45 21 0 29
l-33 6 32 2 c17 0 34 5 38 10 8 13 -5 17 -42 13z"/>
<path d="M372 819 c2 -6 7 -10 11 -10 4 1 14 1 22 1 8 0 15 5 15 10 0 6 -12
10 -26 10 -14 0 -24 -5 -22 -11z"/>
<path d="M390 790 l-25 -8 24 -8 25 -7 -24 -9 c-17 -6 -20 -12 -12 -20 18 -18
42 -1 42 32 0 16 -1 30 -2 29 -2 -1 -14 -5 -28 -9z"/>
<path d="M2256 770 c6 -23 6 -24 -12 -10 -18 14 -18 14 -5 -2 7 -10 17 -15 22
-12 5 3 12 -2 15 -10 3 -9 11 -16 17 -16 8 0 8 3 0 11 -6 6 -10 17 -9 23 2 6
1 7 -2 2 -3 -5 -11 2 -19 15 l-14 24 7 -25z"/>
<path d="M9699 567 c-1 -125 -2 -232 -3 -239 -1 -6 4 -13 10 -15 9 -3 10 60 7
234 -3 131 -7 240 -9 242 -2 2 -5 -98 -5 -222z"/>
<path d="M9739 704 c-8 -428 -7 -524 6 -524 7 0 16 8 18 17 4 15 6 15 12 -4
13 -40 23 -15 18 44 -6 64 -10 74 -22 54 -5 -7 -11 -9 -14 -5 -2 5 -5 117 -6
249 -1 132 -4 241 -7 244 -2 2 -5 -31 -5 -75z"/>
<path d="M9882 531 c-1 -140 -5 -252 -8 -248 -9 9 -13 67 -18 250 -2 87 -6
161 -10 164 -3 3 -6 -91 -6 -210 1 -132 5 -217 10 -217 6 0 11 -19 12 -42 l1
-43 7 45 7 45 2 -40 c2 -45 21 -87 21 -46 0 17 4 22 16 17 9 -3 20 -6 25 -6 5
0 9 -10 10 -22 0 -20 1 -21 8 -5 4 10 10 18 14 18 23 -3 27 4 27 48 0 44 -2
49 -25 53 -14 3 -25 1 -25 -5 0 -6 -3 -7 -7 -3 -9 9 -10 18 -11 230 -1 93 -4
167 -6 165 -3 -2 -7 -89 -10 -193 -2 -103 -7 -191 -10 -194 -3 -3 -7 15 -7 39
-1 24 -5 136 -9 249 l-6 205 -2 -254z m65 -303 c-3 -8 -6 -5 -6 6 -1 11 2 17
5 13 3 -3 4 -12 1 -19z"/>
<path d="M430 747 c0 -9 10 -12 30 -9 35 5 30 22 -6 22 -13 0 -24 -6 -24 -13z"/>
<path d="M9660 537 c1 -158 4 -227 12 -227 8 0 9 63 4 222 -4 122 -9 225 -12
227 -2 2 -4 -98 -4 -222z"/>
<path d="M9841 734 c0 -11 3 -14 6 -6 3 7 2 16 -1 19 -3 4 -6 -2 -5 -13z"/>
<path d="M430 710 c0 -5 9 -10 20 -10 11 0 20 5 20 10 0 6 -9 10 -20 10 -11 0
-20 -4 -20 -10z"/>
<path d="M2382 704 c-7 -8 -8 -14 -3 -14 10 0 25 19 20 25 -2 1 -10 -3 -17
-11z"/>
<path d="M2248 693 c7 -3 16 -2 19 1 4 3 -2 6 -13 5 -11 0 -14 -3 -6 -6z"/>
<path d="M2315 690 c-3 -6 1 -7 9 -4 18 7 21 14 7 14 -6 0 -13 -4 -16 -10z"/>
<path d="M2278 673 c7 -3 16 -2 19 1 4 3 -2 6 -13 5 -11 0 -14 -3 -6 -6z"/>
<path d="M2031 653 c-1 -13 4 -23 9 -23 6 0 18 -16 27 -35 22 -47 55 -48 37
-1 -3 8 -12 12 -20 9 -8 -3 -14 0 -14 6 0 6 6 11 14 11 7 0 19 7 26 15 8 9 8
15 2 15 -6 0 -12 -5 -14 -11 -2 -5 -11 -7 -21 -4 -9 4 -15 11 -12 15 3 5 1 11
-5 15 -5 3 -10 -2 -11 -12 0 -16 -1 -16 -9 2 -8 19 -9 19 -9 -2z"/>
<path d="M9628 638 c-3 -10 -3 -298 1 -331 1 -5 5 -6 10 -3 8 5 4 335 -4 344
-1 2 -5 -3 -7 -10z"/>
<path d="M9771 481 c1 -94 6 -171 10 -171 13 0 11 327 -1 335 -7 4 -10 -49 -9
-164z"/>
<path d="M9808 596 c-10 -64 -10 -138 1 -154 14 -22 16 4 11 108 -5 88 -6 91
-12 46z"/>
<path d="M256 605 c4 -8 7 -15 9 -15 2 0 5 7 9 15 3 9 0 15 -9 15 -9 0 -12 -6
-9 -15z"/>
<path d="M2015 610 c-3 -5 -1 -10 4 -10 6 0 11 5 11 10 0 6 -2 10 -4 10 -3 0
-8 -4 -11 -10z"/>
<path d="M6250 610 c-9 -6 -10 -10 -3 -10 6 0 15 5 18 10 8 12 4 12 -15 0z"/>
<path d="M6287 606 c-4 -10 -1 -13 8 -9 8 3 12 9 9 14 -7 12 -11 11 -17 -5z"/>
<path d="M2131 602 c-1 -18 25 -26 46 -12 16 10 14 11 -9 7 -15 -2 -29 1 -32
7 -3 7 -5 6 -5 -2z"/>
<path d="M6106 588 c3 -4 -5 -9 -18 -9 -17 -1 -18 -3 -5 -6 9 -2 17 -9 17 -14
0 -12 97 -12 105 1 3 6 17 7 31 4 15 -4 24 -2 24 6 0 6 -4 8 -10 5 -5 -3 -10
-2 -10 4 0 6 -7 8 -15 5 -8 -4 -15 -1 -15 5 0 6 -22 10 -54 9 -30 -1 -53 -6
-50 -10z"/>
<path d="M2010 579 c0 -5 5 -7 10 -4 6 3 10 8 10 11 0 2 -4 4 -10 4 -5 0 -10
-5 -10 -11z"/>
<path d="M6270 570 c0 -5 7 -7 15 -4 8 4 15 8 15 10 0 2 -7 4 -15 4 -8 0 -15
-4 -15 -10z"/>
<path d="M4570 554 c0 -8 5 -12 10 -9 6 3 10 10 10 16 0 5 -4 9 -10 9 -5 0
-10 -7 -10 -16z"/>
<path d="M300 539 c0 -5 5 -7 10 -4 6 3 10 8 10 11 0 2 -4 4 -10 4 -5 0 -10
-5 -10 -11z"/>
<path d="M150 529 c0 -5 5 -7 10 -4 6 3 10 8 10 11 0 2 -4 4 -10 4 -5 0 -10
-5 -10 -11z"/>
<path d="M2021 514 c0 -11 3 -14 6 -6 3 7 2 16 -1 19 -3 4 -6 -2 -5 -13z"/>
<path d="M4577 514 c-4 -4 -7 -14 -7 -23 0 -11 3 -12 11 -4 6 6 10 16 7 23 -2
6 -7 8 -11 4z"/>
<path d="M320 491 c-7 -14 -7 -22 0 -26 6 -4 9 -1 8 7 -2 7 2 12 9 11 7 -2 10
4 7 12 -8 20 -11 19 -24 -4z"/>
<path d="M4536 501 c-4 -7 -5 -15 -2 -18 9 -9 19 4 14 18 -4 11 -6 11 -12 0z"/>
<path d="M344 448 c4 -20 26 -21 26 -1 0 14 -2 15 -9 4 -6 -9 -10 -10 -14 -2
-4 8 -5 8 -3 -1z"/>
<path d="M4530 453 c0 -5 5 -15 10 -23 8 -12 10 -11 10 8 0 12 -4 22 -10 22
-5 0 -10 -3 -10 -7z"/>
<path d="M4570 445 c0 -8 5 -15 10 -15 6 0 10 7 10 15 0 8 -4 15 -10 15 -5 0
-10 -7 -10 -15z"/>
<path d="M2268 433 c7 -3 16 -2 19 1 4 3 -2 6 -13 5 -11 0 -14 -3 -6 -6z"/>
<path d="M9804 350 c0 -48 4 -70 12 -70 8 0 12 20 10 67 -2 90 -21 93 -22 3z"/>
<path d="M9951 372 c-1 -28 4 -49 11 -54 18 -11 30 -10 23 2 -3 6 -1 10 4 10
6 0 11 20 11 44 0 39 -2 44 -23 44 -21 0 -24 -5 -26 -46z m39 13 c0 -8 -4 -15
-10 -15 -5 0 -10 7 -10 15 0 8 5 15 10 15 6 0 10 -7 10 -15z"/>
<path d="M4570 391 c0 -12 5 -21 10 -21 6 0 10 6 10 14 0 8 -4 18 -10 21 -5 3
-10 -3 -10 -14z"/>
<path d="M4610 396 c0 -8 5 -18 10 -21 6 -3 10 3 10 14 0 12 -4 21 -10 21 -5
0 -10 -6 -10 -14z"/>
<path d="M4530 355 c0 -25 4 -45 9 -45 5 0 9 20 9 45 -1 25 -5 45 -10 45 -4 0
-8 -20 -8 -45z"/>
<path d="M4613 344 c-3 -8 -1 -20 6 -27 8 -8 11 -4 11 16 0 30 -7 35 -17 11z"/>
<path d="M4570 330 c0 -11 5 -20 10 -20 6 0 10 9 10 20 0 11 -4 20 -10 20 -5
0 -10 -9 -10 -20z"/>
<path d="M1863 333 c9 -2 23 -2 30 0 6 3 -1 5 -18 5 -16 0 -22 -2 -12 -5z"/>
<path d="M4570 274 c0 -14 4 -23 10 -19 6 3 10 15 10 26 0 10 -4 19 -10 19 -5
0 -10 -12 -10 -26z"/>
<path d="M4610 280 c0 -11 4 -20 9 -20 11 0 22 26 14 34 -12 12 -23 5 -23 -14z"/>
<path d="M4530 270 c0 -11 5 -20 10 -20 6 0 10 9 10 20 0 11 -4 20 -10 20 -5
0 -10 -9 -10 -20z"/>
<path d="M1878 273 c-17 -4 -24 -24 -12 -35 9 -10 44 4 44 18 0 16 -10 22 -32
17z"/>
<path d="M1943 255 c0 -14 3 -28 8 -31 5 -3 9 9 9 25 0 17 -4 31 -9 31 -5 0
-8 -11 -8 -25z"/>
<path d="M4486 265 c-3 -9 0 -15 9 -15 8 0 15 7 15 15 0 8 -4 15 -9 15 -5 0
-11 -7 -15 -15z"/>
<path d="M2452 250 c-10 -8 -14 -32 -4 -26 5 3 29 6 55 7 31 2 47 7 47 16 0 9
-13 12 -46 11 -25 -2 -49 -5 -52 -8z"/>
<path d="M4617 243 c-11 -10 -8 -43 3 -43 6 0 10 11 10 25 0 26 -2 29 -13 18z"/>
<path d="M4537 233 c-11 -10 -8 -43 3 -43 6 0 10 11 10 25 0 26 -2 29 -13 18z"/>
<path d="M4570 215 c0 -14 5 -25 10 -25 6 0 10 11 10 25 0 14 -4 25 -10 25 -5
0 -10 -11 -10 -25z"/>
<path d="M4486 214 c-9 -22 -8 -24 9 -24 8 0 15 9 15 20 0 24 -15 27 -24 4z"/>
<path d="M6750 185 c-10 -51 -8 -64 8 -58 16 5 16 5 0 -8 -11 -9 -18 -33 -21
-66 -4 -57 0 -60 51 -47 22 6 32 36 10 32 -6 -2 -14 5 -16 15 -2 10 2 17 12
17 20 0 21 16 1 24 -17 6 -21 36 -5 36 6 0 10 -5 10 -12 0 -6 3 -9 6 -5 4 3
-3 21 -15 39 -11 19 -21 26 -22 18 0 -10 -3 -8 -9 5 -5 11 -9 16 -10 10z"/>
<path d="M9970 113 c0 -10 4 -14 8 -8 4 6 11 13 16 18 5 4 2 7 -7 7 -10 0 -17
-8 -17 -17z"/>
<path d="M5432 81 c-11 -6 -9 -9 6 -13 15 -4 19 -2 15 8 -6 16 -4 16 -21 5z"/>
<path d="M9970 65 c0 -9 5 -15 11 -13 6 2 11 8 11 13 0 5 -5 11 -11 13 -6 2
-11 -4 -11 -13z"/>
<path d="M5010 19 c0 -16 7 -19 51 -19 42 0 50 3 47 17 -2 13 -15 18 -51 19
-40 2 -47 0 -47 -17z"/>
<path d="M9118 23 c6 -2 18 -2 25 0 6 3 1 5 -13 5 -14 0 -19 -2 -12 -5z"/>
<path d="M4485 10 c-3 -5 -1 -10 4 -10 6 0 11 5 11 10 0 6 -2 10 -4 10 -3 0
-8 -4 -11 -10z"/>
<path d="M7010 10 c0 -5 5 -10 11 -10 5 0 7 5 4 10 -3 6 -8 10 -11 10 -2 0 -4
-4 -4 -10z"/>
<path d="M4568 3 c7 -3 16 -2 19 1 4 3 -2 6 -13 5 -11 0 -14 -3 -6 -6z"/>
</g>
</svg>
